<svg width="26" height="26" viewBox="0 0 26 26" fill="none" xmlns="http://www.w3.org/2000/svg">
<path fill-rule="evenodd" clip-rule="evenodd" d="M1.6223 13C1.6223 19.2822 6.7066 24.375 12.9784 24.375C19.2502 24.375 24.3345 19.2822 24.3345 13C24.3345 6.71776 19.2502 1.625 12.9784 1.625C6.7066 1.625 1.6223 6.71776 1.6223 13ZM25.9568 13C25.9568 20.1797 20.1462 26 12.9784 26C5.81063 26 0 20.1797 0 13C0 5.8203 5.81063 0 12.9784 0C20.1462 0 25.9568 5.8203 25.9568 13ZM9.4962 17.5553C9.17943 17.8726 8.66583 17.8726 8.34906 17.5553C8.03229 17.238 8.03229 16.7236 8.34906 16.4063L14.9943 9.74999L10.5042 9.74999C10.0562 9.74999 9.69308 9.38622 9.69308 8.93749C9.69308 8.48876 10.0562 8.12499 10.5042 8.12499L16.9526 8.12498C17.4006 8.12498 17.7638 8.48875 17.7638 8.93748V15.3967C17.7638 15.8454 17.4006 16.2092 16.9526 16.2092C16.5046 16.2092 16.1415 15.8454 16.1415 15.3967V10.899L9.4962 17.5553Z" fill="white"/>
</svg>
