<svg width="24" height="24" viewBox="0 0 24 24" fill="none" xmlns="http://www.w3.org/2000/svg">
<g clip-path="url(#clip0_1411_2890)">
<path d="M17.6568 6.34315C19.1571 7.84344 20 9.87827 20 12C20 14.1217 19.1571 16.1566 17.6568 17.6569C16.1566 19.1571 14.1217 20 12 20C9.87826 20 7.84342 19.1571 6.34313 17.6569C4.84284 16.1566 3.99999 14.1217 3.99999 12C3.99999 9.87827 4.84284 7.84344 6.34313 6.34315C7.84342 4.84285 9.87826 4 12 4C14.1217 4 16.1566 4.84285 17.6568 6.34315ZM9.87867 9.17157C9.7849 9.0778 9.65772 9.02513 9.52511 9.02513C9.39251 9.02513 9.26533 9.0778 9.17156 9.17157C9.07779 9.26534 9.02511 9.39252 9.02511 9.52513C9.02511 9.65773 9.07779 9.78491 9.17156 9.87868L11.2929 12L9.17156 14.1213C9.07779 14.2151 9.02511 14.3423 9.02511 14.4749C9.02511 14.6075 9.07779 14.7347 9.17156 14.8284C9.26533 14.9222 9.39251 14.9749 9.52511 14.9749C9.65772 14.9749 9.7849 14.9222 9.87867 14.8284L12 12.7071L14.1213 14.8284C14.2151 14.9222 14.3423 14.9749 14.4749 14.9749C14.6075 14.9749 14.7346 14.9222 14.8284 14.8284C14.9222 14.7347 14.9749 14.6075 14.9749 14.4749C14.9749 14.3423 14.9222 14.2151 14.8284 14.1213L12.7071 12L14.8284 9.87868C14.9222 9.78491 14.9749 9.65773 14.9749 9.52513C14.9749 9.39252 14.9222 9.26534 14.8284 9.17157C14.7346 9.0778 14.6075 9.02513 14.4749 9.02513C14.3423 9.02513 14.2151 9.0778 14.1213 9.17157L12 11.2929L9.87867 9.17157Z" fill="#FF5656"/>
</g>
<defs>
<clipPath id="clip0_1411_2890">
<rect width="16" height="16" fill="white" transform="translate(0.686279 12) rotate(-45)"/>
</clipPath>
</defs>
</svg>
