<svg width="30" height="30" viewBox="0 0 30 30" fill="none" xmlns="http://www.w3.org/2000/svg">
<path d="M26.25 9.17008H21.3375L21.8025 3.83008C21.8475 3.31508 21.465 2.86133 20.95 2.81508C20.4288 2.77758 19.98 3.15258 19.935 3.66883L19.4562 9.16883H11.5562L12.0187 3.83133C12.065 3.31508 11.6813 2.86133 11.1688 2.81508C10.6438 2.77758 10.1975 3.15258 10.1525 3.66883L9.675 9.16883H4.7275C4.21 9.16883 3.79 9.59008 3.79 10.1063C3.79 10.6226 4.21 11.0438 4.7275 11.0438H9.5125L8.825 18.9526H3.75C3.2325 18.9526 2.8125 19.3726 2.8125 19.8901C2.8125 20.4076 3.2325 20.8276 3.75 20.8276H8.6625L8.1975 26.1676C8.1525 26.6826 8.535 27.1363 9.05 27.1826L9.1325 27.1863C9.61375 27.1863 10.0225 26.8176 10.065 26.3288L10.5438 20.8288H18.4438L17.9813 26.1663C17.9363 26.6826 18.3188 27.1363 18.8338 27.1826L18.9163 27.1863C19.3975 27.1863 19.8062 26.8176 19.8487 26.3288L20.3262 20.8288H25.2725C25.7888 20.8288 26.21 20.4076 26.21 19.8913C26.21 19.3751 25.7888 18.9538 25.2725 18.9538H20.4875L21.175 11.0451H26.25C26.7675 11.0451 27.1875 10.6251 27.1875 10.1076C27.1875 9.59008 26.7675 9.17008 26.25 9.17008V9.17008ZM18.6063 18.9526H10.7062L11.3937 11.0451H19.2938L18.6063 18.9526Z" fill="white"/>
</svg>
