<svg width="407" height="100" viewBox="0 0 407 100" fill="none" xmlns="http://www.w3.org/2000/svg">
<path fill-rule="evenodd" clip-rule="evenodd" d="M43.4862 1.33789H50.5373V98.8792H43.4862V1.33789ZM120.223 42.1991V94.3939H131.258V77.4715H140.535C144.545 77.4715 147.96 76.7323 150.78 75.2541C153.618 73.776 155.784 71.7116 157.279 69.0612C158.775 66.4105 159.522 63.3524 159.522 59.8864C159.522 56.4203 158.783 53.3619 157.305 50.7115C155.843 48.044 153.72 45.9627 150.933 44.4674C148.147 42.9552 144.774 42.1991 140.815 42.1991H120.223ZM131.258 68.6279H138.751C140.875 68.6279 142.625 68.2626 144.001 67.5322C145.394 66.7845 146.431 65.7565 147.11 64.4482C147.807 63.123 148.155 61.6024 148.155 59.8864C148.155 58.1531 147.807 56.641 147.11 55.3498C146.431 54.0415 145.394 53.0307 144.001 52.317C142.608 51.5865 140.841 51.221 138.7 51.221H131.258V68.6279ZM166.486 55.2477V94.3939H177.343V72.2469C177.343 70.6499 177.7 69.2394 178.413 68.0163C179.144 66.7929 180.129 65.8414 181.37 65.1618C182.627 64.4654 184.054 64.117 185.651 64.117C186.399 64.117 187.223 64.1763 188.124 64.2952C189.024 64.4141 189.729 64.5503 190.239 64.7032V55.0695C189.763 54.9505 189.211 54.8572 188.582 54.7892C187.953 54.7211 187.367 54.6871 186.824 54.6871C184.632 54.6871 182.695 55.3158 181.013 56.5732C179.331 57.8135 178.133 59.6485 177.419 62.0781H177.012V55.2477H166.486ZM201.446 92.6354C204.334 94.3174 207.758 95.1584 211.717 95.1584C215.676 95.1584 219.091 94.3174 221.962 92.6354C224.851 90.9366 227.076 88.5747 228.639 85.5503C230.202 82.5091 230.984 78.9837 230.984 74.9738C230.984 70.9302 230.202 67.396 228.639 64.3717C227.076 61.3305 224.851 58.9689 221.962 57.2869C219.091 55.5877 215.676 54.7383 211.717 54.7383C207.758 54.7383 204.334 55.5877 201.446 57.2869C198.575 58.9689 196.357 61.3305 194.794 64.3717C193.231 67.396 192.45 70.9302 192.45 74.9738C192.45 78.9837 193.231 82.5091 194.794 85.5503C196.357 88.5747 198.575 90.9366 201.446 92.6354ZM216.279 85.2191C215.073 86.2387 213.569 86.7485 211.768 86.7485C209.95 86.7485 208.421 86.2387 207.18 85.2191C205.957 84.1827 205.031 82.7726 204.402 80.9885C203.791 79.2044 203.485 77.174 203.485 74.8973C203.485 72.6206 203.791 70.5902 204.402 68.8065C205.031 67.0224 205.957 65.612 207.18 64.5755C208.421 63.5391 209.95 63.0209 211.768 63.0209C213.569 63.0209 215.073 63.5391 216.279 64.5755C217.485 65.612 218.394 67.0224 219.006 68.8065C219.634 70.5902 219.949 72.6206 219.949 74.8973C219.949 77.174 219.634 79.2044 219.006 80.9885C218.394 82.7726 217.485 84.1827 216.279 85.2191ZM258.866 63.4033V55.2477H251.5V45.869H240.643V55.2477H235.291V63.4033H240.643V83.7918C240.626 86.3576 241.161 88.4813 242.249 90.1633C243.336 91.8453 244.857 93.0856 246.811 93.8841C248.782 94.683 251.076 95.0311 253.692 94.9293C255.102 94.8781 256.3 94.7339 257.285 94.496C258.271 94.275 259.035 94.0796 259.579 93.9097L257.872 85.8306C257.6 85.8818 257.209 85.9583 256.699 86.0601C256.19 86.145 255.68 86.1874 255.17 86.1874C254.44 86.1874 253.794 86.0773 253.233 85.8562C252.689 85.6355 252.265 85.2531 251.959 84.7093C251.653 84.1486 251.5 83.3673 251.5 82.3649V63.4033H258.866ZM272.934 92.6354C275.822 94.3174 279.246 95.1584 283.204 95.1584C287.163 95.1584 290.578 94.3174 293.45 92.6354C296.338 90.9366 298.564 88.5747 300.127 85.5503C301.69 82.5091 302.472 78.9837 302.472 74.9738C302.472 70.9302 301.69 67.396 300.127 64.3717C298.564 61.3305 296.338 58.9689 293.45 57.2869C290.578 55.5877 287.163 54.7383 283.204 54.7383C279.246 54.7383 275.822 55.5877 272.934 57.2869C270.062 58.9689 267.845 61.3305 266.282 64.3717C264.719 67.396 263.937 70.9302 263.937 74.9738C263.937 78.9837 264.719 82.5091 266.282 85.5503C267.845 88.5747 270.062 90.9366 272.934 92.6354ZM287.766 85.2191C286.56 86.2387 285.056 86.7485 283.256 86.7485C281.437 86.7485 279.908 86.2387 278.668 85.2191C277.445 84.1827 276.519 82.7726 275.89 80.9885C275.279 79.2044 274.973 77.174 274.973 74.8973C274.973 72.6206 275.279 70.5902 275.89 68.8065C276.519 67.0224 277.445 65.612 278.668 64.5755C279.908 63.5391 281.437 63.0209 283.256 63.0209C285.056 63.0209 286.56 63.5391 287.766 64.5755C288.973 65.612 289.882 67.0224 290.493 68.8065C291.122 70.5902 291.436 72.6206 291.436 74.8973C291.436 77.174 291.122 79.2044 290.493 80.9885C289.882 82.7726 288.973 84.1827 287.766 85.2191ZM316.871 92.6102C319.759 94.309 323.209 95.1584 327.218 95.1584C330.702 95.1584 333.717 94.5213 336.266 93.247C338.814 91.973 340.812 90.2058 342.254 87.9463C343.716 85.6692 344.532 83.0357 344.7 80.0454H334.456C334.253 81.4218 333.819 82.6028 333.156 83.588C332.511 84.5567 331.687 85.2956 330.684 85.8054C329.699 86.3151 328.586 86.5699 327.346 86.5699C325.664 86.5699 324.194 86.1113 322.937 85.1938C321.679 84.276 320.703 82.9424 320.006 81.1923C319.326 79.4423 318.987 77.3185 318.987 74.8208C318.987 72.3575 319.335 70.259 320.031 68.5258C320.728 66.7929 321.697 65.4762 322.937 64.5755C324.194 63.658 325.664 63.1995 327.346 63.1995C329.334 63.1995 330.939 63.8026 332.163 65.0088C333.403 66.1982 334.168 67.7697 334.456 69.724H344.7C344.549 66.6996 343.723 64.0661 342.231 61.8231C340.735 59.5804 338.704 57.8388 336.138 56.5985C333.573 55.3582 330.583 54.7383 327.167 54.7383C323.209 54.7383 319.793 55.5961 316.922 57.3121C314.051 59.0113 311.834 61.3814 310.27 64.4229C308.724 67.4469 307.951 70.9642 307.951 74.9738C307.951 78.9325 308.716 82.4326 310.245 85.4741C311.791 88.5154 314 90.8938 316.871 92.6102ZM359.071 92.6354C361.958 94.3174 365.382 95.1584 369.341 95.1584C373.3 95.1584 376.713 94.3174 379.587 92.6354C382.475 90.9366 384.698 88.5747 386.262 85.5503C387.825 82.5091 388.607 78.9837 388.607 74.9738C388.607 70.9302 387.825 67.396 386.262 64.3717C384.698 61.3305 382.475 58.9689 379.587 57.2869C376.713 55.5877 373.3 54.7383 369.341 54.7383C365.382 54.7383 361.958 55.5877 359.071 57.2869C356.197 58.9689 353.98 61.3305 352.416 64.3717C350.853 67.396 350.071 70.9302 350.071 74.9738C350.071 78.9837 350.853 82.5091 352.416 85.5503C353.98 88.5747 356.197 90.9366 359.071 92.6354ZM373.903 85.2191C372.697 86.2387 371.19 86.7485 369.391 86.7485C367.572 86.7485 366.045 86.2387 364.802 85.2191C363.579 84.1827 362.656 82.7726 362.026 80.9885C361.412 79.2044 361.109 77.174 361.109 74.8973C361.109 72.6206 361.412 70.5902 362.026 68.8065C362.656 67.0224 363.579 65.612 364.802 64.5755C366.045 63.5391 367.572 63.0209 369.391 63.0209C371.19 63.0209 372.697 63.5391 373.903 64.5755C375.109 65.612 376.019 67.0224 376.629 68.8065C377.259 70.5902 377.572 72.6206 377.572 74.8973C377.572 77.174 377.259 79.2044 376.629 80.9885C376.019 82.7726 375.109 84.1827 373.903 85.2191ZM406.525 94.3939V42.1991H395.666V94.3939H406.525ZM2.33691 36.8381V43.8892H23.2045L2.35627 78.5864L8.40029 82.218L35.6799 36.8172H27.4538L27.4413 36.8381H2.33691ZM92.0792 36.8381V43.8892H71.2109L92.062 78.5861L86.0173 82.218L58.7337 36.8172H66.9611L66.9736 36.8381H92.0792Z" fill="white"/>
<path d="M50.5373 1.33789H43.4862V98.8792H50.5373V1.33789Z" fill="white"/>
<path d="M2.33691 43.8892V36.8381H27.4413L27.4538 36.8172H35.6799L8.40029 82.218L2.35627 78.5864L23.2045 43.8892H2.33691Z" fill="white"/>
<path d="M92.0792 43.8892V36.8381H66.9736L66.9611 36.8172H58.7337L86.0173 82.218L92.062 78.5861L71.2109 43.8892H92.0792Z" fill="white"/>
<path d="M50.5373 1.33789H43.4862V98.8792H50.5373V1.33789Z" stroke="white" stroke-width="2"/>
<path d="M2.33691 43.8892V36.8381H27.4413L27.4538 36.8172H35.6799L8.40029 82.218L2.35627 78.5864L23.2045 43.8892H2.33691Z" stroke="white" stroke-width="2"/>
<path d="M92.0792 43.8892V36.8381H66.9736L66.9611 36.8172H58.7337L86.0173 82.218L92.062 78.5861L71.2109 43.8892H92.0792Z" stroke="white" stroke-width="2"/>
</svg>
