<svg width="3000" height="729" viewBox="0 0 3000 729" fill="none" xmlns="http://www.w3.org/2000/svg">
<g clip-path="url(#clip0_1294_917)">
<path fill-rule="evenodd" clip-rule="evenodd" d="M307.306 2.49609H359.536V725.025H307.306V2.49609ZM875.726 305.172V691.8H957.47V566.449H1026.19C1055.89 566.449 1081.18 560.973 1102.08 550.024C1123.09 539.075 1139.14 523.783 1150.22 504.151C1161.29 484.516 1166.83 461.863 1166.83 436.189C1166.83 410.514 1161.36 387.859 1150.41 368.227C1139.58 348.467 1123.85 333.051 1103.21 321.974C1082.57 310.773 1057.59 305.172 1028.26 305.172H875.726ZM957.47 500.941H1012.97C1028.7 500.941 1041.67 498.235 1051.86 492.824C1062.18 487.286 1069.86 479.671 1074.89 469.98C1080.05 460.164 1082.63 448.9 1082.63 436.189C1082.63 423.35 1080.05 412.149 1074.89 402.585C1069.86 392.893 1062.18 385.406 1051.86 380.12C1041.54 374.709 1028.45 372.001 1012.59 372.001H957.47V500.941ZM1218.42 401.828V691.8H1298.84V527.749C1298.84 515.918 1301.48 505.471 1306.77 496.411C1312.18 487.349 1319.48 480.3 1328.66 475.266C1337.98 470.107 1348.55 467.527 1360.38 467.527C1365.92 467.527 1372.02 467.966 1378.69 468.847C1385.36 469.728 1390.59 470.736 1394.36 471.869V400.508C1390.84 399.627 1386.75 398.936 1382.09 398.432C1377.43 397.927 1373.09 397.675 1369.06 397.675C1352.83 397.675 1338.48 402.333 1326.02 411.647C1313.56 420.834 1304.69 434.427 1299.4 452.424H1296.38V401.828H1218.42ZM1477.38 678.775C1498.77 691.234 1524.13 697.464 1553.46 697.464C1582.78 697.464 1608.08 691.234 1629.35 678.775C1650.75 666.191 1667.23 648.695 1678.81 626.292C1690.39 603.765 1696.18 577.651 1696.18 547.948C1696.18 517.995 1690.39 491.816 1678.81 469.413C1667.23 446.886 1650.75 429.393 1629.35 416.933C1608.08 404.347 1582.78 398.055 1553.46 398.055C1524.13 398.055 1498.77 404.347 1477.38 416.933C1456.11 429.393 1439.68 446.886 1428.11 469.413C1416.53 491.816 1410.74 517.995 1410.74 547.948C1410.74 577.651 1416.53 603.765 1428.11 626.292C1439.68 648.695 1456.11 666.191 1477.38 678.775ZM1587.25 623.839C1578.32 631.391 1567.18 635.167 1553.84 635.167C1540.37 635.167 1529.04 631.391 1519.86 623.839C1510.79 616.161 1503.93 605.716 1499.28 592.501C1494.75 579.285 1492.48 564.245 1492.48 547.381C1492.48 530.517 1494.75 515.477 1499.28 502.264C1503.93 489.048 1510.79 478.601 1519.86 470.923C1529.04 463.246 1540.37 459.408 1553.84 459.408C1567.18 459.408 1578.32 463.246 1587.25 470.923C1596.19 478.601 1602.92 489.048 1607.45 502.264C1612.11 515.477 1614.44 530.517 1614.44 547.381C1614.44 564.245 1612.11 579.285 1607.45 592.501C1602.92 605.716 1596.19 616.161 1587.25 623.839ZM1902.71 462.24V401.828H1848.15V332.357H1767.73V401.828H1728.08V462.24H1767.73V613.266C1767.6 632.272 1771.57 648.003 1779.62 660.463C1787.68 672.922 1798.94 682.109 1813.41 688.024C1828.01 693.942 1845 696.52 1864.38 695.766C1874.83 695.387 1883.7 694.319 1891 692.557C1898.3 690.919 1903.97 689.472 1907.99 688.214L1895.35 628.369C1893.33 628.748 1890.44 629.315 1886.66 630.068C1882.89 630.697 1879.11 631.012 1875.33 631.012C1869.92 631.012 1865.14 630.196 1860.99 628.558C1856.96 626.924 1853.81 624.091 1851.55 620.062C1849.28 615.909 1848.15 610.122 1848.15 602.696V462.24H1902.71ZM2006.92 678.775C2028.31 691.234 2053.67 697.464 2083 697.464C2112.32 697.464 2137.62 691.234 2158.89 678.775C2180.28 666.191 2196.77 648.695 2208.35 626.292C2219.93 603.765 2225.72 577.651 2225.72 547.948C2225.72 517.995 2219.93 491.816 2208.35 469.413C2196.77 446.886 2180.28 429.393 2158.89 416.933C2137.62 404.347 2112.32 398.055 2083 398.055C2053.67 398.055 2028.31 404.347 2006.92 416.933C1985.65 429.393 1969.22 446.886 1957.64 469.413C1946.07 491.816 1940.28 517.995 1940.28 547.948C1940.28 577.651 1946.07 603.765 1957.64 626.292C1969.22 648.695 1985.65 666.191 2006.92 678.775ZM2116.79 623.839C2107.85 631.391 2096.71 635.167 2083.37 635.167C2069.91 635.167 2058.58 631.391 2049.39 623.839C2040.33 616.161 2033.47 605.716 2028.82 592.501C2024.29 579.285 2022.02 564.245 2022.02 547.381C2022.02 530.517 2024.29 515.477 2028.82 502.264C2033.47 489.048 2040.33 478.601 2049.39 470.923C2058.58 463.246 2069.91 459.408 2083.37 459.408C2096.71 459.408 2107.85 463.246 2116.79 470.923C2125.72 478.601 2132.46 489.048 2136.99 502.264C2141.64 515.477 2143.97 530.517 2143.97 547.381C2143.97 564.245 2141.64 579.285 2136.99 592.501C2132.46 605.716 2125.72 616.161 2116.79 623.839ZM2332.38 678.587C2353.77 691.172 2379.32 697.464 2409.02 697.464C2434.83 697.464 2457.16 692.744 2476.04 683.305C2494.92 673.868 2509.72 660.777 2520.4 644.04C2531.23 627.173 2537.27 607.666 2538.52 585.515H2462.64C2461.13 595.711 2457.92 604.458 2453.01 611.756C2448.23 618.932 2442.12 624.405 2434.7 628.181C2427.4 631.958 2419.16 633.845 2409.97 633.845C2397.51 633.845 2386.62 630.448 2377.31 623.651C2368 616.853 2360.76 606.974 2355.6 594.011C2350.56 581.047 2348.05 565.316 2348.05 546.814C2348.05 528.567 2350.63 513.023 2355.79 500.185C2360.95 487.349 2368.12 477.595 2377.31 470.923C2386.62 464.127 2397.51 460.73 2409.97 460.73C2424.69 460.73 2436.59 465.198 2445.65 474.133C2454.84 482.943 2460.5 494.584 2462.64 509.06H2538.52C2537.4 486.657 2531.28 467.15 2520.23 450.535C2509.15 433.923 2494.1 421.021 2475.1 411.834C2456.1 402.647 2433.95 398.055 2408.65 398.055C2379.32 398.055 2354.03 404.409 2332.76 417.121C2311.49 429.707 2295.06 447.263 2283.48 469.793C2272.03 492.193 2266.3 518.247 2266.3 547.948C2266.3 577.271 2271.97 603.198 2283.3 625.728C2294.75 648.255 2311.11 665.874 2332.38 678.587ZM2644.97 678.775C2666.36 691.234 2691.72 697.464 2721.04 697.464C2750.37 697.464 2775.65 691.234 2796.94 678.775C2818.33 666.191 2834.8 648.695 2846.38 626.292C2857.96 603.765 2863.75 577.651 2863.75 547.948C2863.75 517.995 2857.96 491.816 2846.38 469.413C2834.8 446.886 2818.33 429.393 2796.94 416.933C2775.65 404.347 2750.37 398.055 2721.04 398.055C2691.72 398.055 2666.36 404.347 2644.97 416.933C2623.68 429.393 2607.26 446.886 2595.68 469.413C2584.1 491.816 2578.3 517.995 2578.3 547.948C2578.3 577.651 2584.1 603.765 2595.68 626.292C2607.26 648.695 2623.68 666.191 2644.97 678.775ZM2754.84 623.839C2745.9 631.391 2734.74 635.167 2721.42 635.167C2707.94 635.167 2696.63 631.391 2687.42 623.839C2678.36 616.161 2671.52 605.716 2666.86 592.501C2662.31 579.285 2660.07 564.245 2660.07 547.381C2660.07 530.517 2662.31 515.477 2666.86 502.264C2671.52 489.048 2678.36 478.601 2687.42 470.923C2696.63 463.246 2707.94 459.408 2721.42 459.408C2734.74 459.408 2745.9 463.246 2754.84 470.923C2763.77 478.601 2770.51 489.048 2775.03 502.264C2779.69 515.477 2782.02 530.517 2782.02 547.381C2782.02 564.245 2779.69 579.285 2775.03 592.501C2770.51 605.716 2763.77 616.161 2754.84 623.839ZM2996.48 691.8V305.172H2916.04V691.8H2996.48ZM2.49609 265.461V317.691H157.071L2.63948 574.708L47.41 601.608L249.481 265.306H188.547L188.455 265.461H2.49609ZM667.254 265.461V317.691H512.674L667.126 574.706L622.351 601.608L420.25 265.306H481.194L481.286 265.461H667.254Z" fill="white" fill-opacity="0.83"/>
<path d="M359.54 2.53009H361.411V0.658203H359.54V2.53009ZM307.309 2.53009V0.658203H305.437V2.53009H307.309ZM359.54 725.06V726.932H361.411V725.06H359.54ZM307.309 725.06H305.437V726.932H307.309V725.06ZM875.729 691.835H873.858V693.707H875.729V691.835ZM875.729 305.206V303.334H873.858V305.206H875.729ZM957.473 691.835V693.707H959.345V691.835H957.473ZM957.473 566.484V564.612H955.601V566.484H957.473ZM1102.08 550.059L1101.22 548.399L1101.21 548.402L1102.08 550.059ZM1150.41 368.261L1148.77 369.16L1148.77 369.172L1150.41 368.261ZM1103.21 322.008L1102.32 323.653L1102.33 323.658L1103.21 322.008ZM957.473 500.976H955.601V502.847H957.473V500.976ZM1051.86 492.859L1052.74 494.511L1052.75 494.506L1051.86 492.859ZM1074.9 470.014L1073.24 469.143L1073.24 469.151L1074.9 470.014ZM1074.9 402.619L1073.24 403.483L1073.25 403.508L1074.9 402.619ZM1051.86 380.154L1050.99 381.811L1051.01 381.819L1051.86 380.154ZM957.473 372.035V370.163H955.601V372.035H957.473ZM1218.42 691.835H1216.55V693.707H1218.42V691.835ZM1218.42 401.863V399.991H1216.55V401.863H1218.42ZM1298.84 691.835V693.707H1300.71V691.835H1298.84ZM1306.77 496.446L1305.16 495.485L1305.15 495.502L1306.77 496.446ZM1328.67 475.301L1329.57 476.943L1329.58 476.938L1328.67 475.301ZM1394.37 471.904L1393.83 473.696L1396.24 474.42V471.904H1394.37ZM1394.37 400.543H1396.24V399.08L1394.82 398.726L1394.37 400.543ZM1326.02 411.682L1327.13 413.187L1327.14 413.179L1326.02 411.682ZM1299.41 452.459V454.331H1300.81L1301.2 452.985L1299.41 452.459ZM1296.39 452.459H1294.51V454.331H1296.39V452.459ZM1296.39 401.863H1298.26V399.991H1296.39V401.863ZM1477.38 678.81L1476.43 680.422L1476.44 680.427L1477.38 678.81ZM1678.81 626.327L1680.48 627.188L1680.48 627.183L1678.81 626.327ZM1678.81 469.448L1677.15 470.304L1677.15 470.309L1678.81 469.448ZM1629.35 416.968L1628.4 418.578L1628.41 418.585L1629.35 416.968ZM1477.38 416.968L1478.33 418.583L1478.33 418.58L1477.38 416.968ZM1428.11 469.448L1429.77 470.309L1429.77 470.304L1428.11 469.448ZM1428.11 626.327L1426.44 627.183L1426.45 627.188L1428.11 626.327ZM1587.25 623.873L1588.46 625.304L1588.47 625.294L1587.25 623.873ZM1519.86 623.873L1518.65 625.301L1518.67 625.321L1519.86 623.873ZM1499.28 592.536L1497.51 593.142L1497.52 593.157L1499.28 592.536ZM1499.28 502.298L1497.52 501.674L1497.51 501.689L1499.28 502.298ZM1519.86 470.958L1518.66 469.523L1518.65 469.53L1519.86 470.958ZM1607.45 502.298L1605.68 502.905L1605.69 502.92L1607.45 502.298ZM1607.45 592.536L1605.69 591.914L1605.68 591.929L1607.45 592.536ZM1902.71 401.863H1904.58V399.991H1902.71V401.863ZM1902.71 462.275V464.147H1904.58V462.275H1902.71ZM1848.15 401.863H1846.28V403.735H1848.15V401.863ZM1848.15 332.391H1850.02V330.519H1848.15V332.391ZM1767.73 332.391V330.519H1765.86V332.391H1767.73ZM1767.73 401.863V403.735H1769.6V401.863H1767.73ZM1728.09 401.863V399.991H1726.21V401.863H1728.09ZM1728.09 462.275H1726.21V464.147H1728.09V462.275ZM1767.73 462.275H1769.6V460.403H1767.73V462.275ZM1767.73 613.301L1769.6 613.314V613.301H1767.73ZM1813.42 688.059L1812.71 689.794L1812.71 689.796L1813.42 688.059ZM1864.39 695.801L1864.32 693.929H1864.31L1864.39 695.801ZM1891.01 692.592L1890.6 690.765L1890.57 690.772L1891.01 692.592ZM1908 688.249L1908.56 690.036L1910.18 689.527L1909.83 687.862L1908 688.249ZM1895.35 628.403L1897.18 628.017L1896.8 626.227L1895 626.564L1895.35 628.403ZM1886.66 630.103L1886.97 631.95L1887 631.945L1887.03 631.94L1886.66 630.103ZM1860.99 628.593L1860.28 630.328L1860.3 630.335L1860.99 628.593ZM1851.55 620.097L1849.91 620.996L1849.92 621.016L1851.55 620.097ZM1848.15 462.275V460.403H1846.28V462.275H1848.15ZM2006.92 678.81L2005.97 680.422L2005.98 680.427L2006.92 678.81ZM2158.89 678.81L2159.84 680.424H2159.84L2158.89 678.81ZM2208.35 626.327L2210.01 627.188L2210.02 627.183L2208.35 626.327ZM2208.35 469.448L2206.69 470.304L2206.69 470.309L2208.35 469.448ZM2158.89 416.968L2157.94 418.578L2157.95 418.585L2158.89 416.968ZM2006.92 416.968L2007.87 418.583L2007.87 418.58L2006.92 416.968ZM1957.65 469.448L1959.31 470.309L1959.31 470.304L1957.65 469.448ZM1957.65 626.327L1955.98 627.183L1955.98 627.188L1957.65 626.327ZM2116.79 623.873L2118 625.304L2118.01 625.294L2116.79 623.873ZM2049.4 623.873L2048.19 625.301L2048.21 625.321L2049.4 623.873ZM2028.82 592.536L2027.05 593.142L2027.05 593.157L2028.82 592.536ZM2028.82 502.298L2027.05 501.674L2027.05 501.689L2028.82 502.298ZM2049.4 470.958L2048.2 469.523L2048.19 469.53L2049.4 470.958ZM2136.99 502.298L2135.22 502.905L2135.23 502.92L2136.99 502.298ZM2136.99 592.536L2135.23 591.914L2135.22 591.929L2136.99 592.536ZM2332.38 678.622L2331.42 680.227L2331.43 680.235L2332.38 678.622ZM2520.4 644.075L2518.83 643.062V643.066L2520.4 644.075ZM2538.52 585.55L2540.4 585.657L2540.52 583.678H2538.52V585.55ZM2462.64 585.55V583.678H2461.03L2460.79 585.275L2462.64 585.55ZM2453.01 611.791L2451.46 610.748L2451.46 610.753L2453.01 611.791ZM2434.7 628.216L2433.85 626.547L2433.84 626.554L2434.7 628.216ZM2355.6 594.046L2353.86 594.724L2353.86 594.739L2355.6 594.046ZM2377.31 470.958L2378.41 472.473L2378.42 472.47L2377.31 470.958ZM2445.65 474.168L2444.34 475.5L2444.36 475.52L2445.65 474.168ZM2462.64 509.094L2460.79 509.367L2461.03 510.966H2462.64V509.094ZM2538.52 509.094V510.966H2540.5L2540.4 509L2538.52 509.094ZM2332.76 417.155L2333.71 418.767L2333.72 418.762L2332.76 417.155ZM2283.49 469.827L2281.82 468.971V468.974L2283.49 469.827ZM2283.3 625.763L2281.63 626.601L2281.63 626.609L2283.3 625.763ZM2644.97 678.81L2644 680.422L2644.02 680.427L2644.97 678.81ZM2796.94 678.81L2797.87 680.424H2797.89L2796.94 678.81ZM2846.39 626.327L2848.06 627.188V627.183L2846.39 626.327ZM2846.39 469.448L2844.74 470.304V470.309L2846.39 469.448ZM2796.94 416.968L2795.97 418.578L2795.99 418.585L2796.94 416.968ZM2644.97 416.968L2645.89 418.583L2645.92 418.58L2644.97 416.968ZM2595.68 469.448L2597.35 470.309V470.304L2595.68 469.448ZM2595.68 626.327L2594.03 627.183V627.188L2595.68 626.327ZM2754.84 623.873L2756.04 625.304L2756.06 625.294L2754.84 623.873ZM2687.43 623.873L2686.23 625.301L2686.25 625.321L2687.43 623.873ZM2666.86 592.536L2665.09 593.142V593.157L2666.86 592.536ZM2666.86 502.298L2665.09 501.674V501.689L2666.86 502.298ZM2687.43 470.958L2686.23 469.523V469.53L2687.43 470.958ZM2775.03 502.298L2773.26 502.905V502.92L2775.03 502.298ZM2775.03 592.536L2773.26 591.914V591.929L2775.03 592.536ZM2996.49 305.206H2998.36V303.334H2996.49V305.206ZM2996.49 691.835V693.707H2998.36V691.835H2996.49ZM2916.04 305.206V303.334H2914.17V305.206H2916.04ZM2916.04 691.835H2914.17V693.707H2916.04V691.835ZM2.49945 317.725H0.627565V319.597H2.49945V317.725ZM2.49945 265.495V263.623H0.627565V265.495H2.49945ZM157.074 317.725L158.679 318.689L160.383 315.854H157.074V317.725ZM2.64283 574.743L1.03831 573.779L0.0742188 575.384L1.67873 576.348L2.64283 574.743ZM47.4134 601.643L46.4492 603.248L48.0535 604.211L49.0177 602.609L47.4134 601.643ZM249.485 265.34L251.09 266.304L252.792 263.468H249.485V265.34ZM188.55 265.34V263.468H187.491L186.946 264.377L188.55 265.34ZM188.458 265.495V267.367H189.517L190.063 266.458L188.458 265.495ZM667.257 317.725V319.597H669.129V317.725H667.257ZM667.257 265.495H669.129V263.623H667.257V265.495ZM512.677 317.725V315.854H509.367L511.072 318.689L512.677 317.725ZM667.13 574.74L668.095 576.345L669.7 575.382L668.734 573.777L667.13 574.74ZM622.354 601.643L620.749 602.606L621.713 604.211L623.318 603.248L622.354 601.643ZM420.253 265.34V263.468H416.944L418.649 266.304L420.253 265.34ZM481.197 265.34L482.802 264.377L482.255 263.468H481.197V265.34ZM481.289 265.495L479.684 266.458L480.231 267.367H481.289V265.495ZM359.54 0.658203H307.309V4.40197H359.54V0.658203ZM361.411 725.06V2.53009H357.668V725.06H361.411ZM307.309 726.932H359.54V723.188H307.309V726.932ZM305.437 2.53009V725.06H309.181V2.53009H305.437ZM877.601 691.835V305.206H873.858V691.835H877.601ZM957.473 689.963H875.729V693.707H957.473V689.963ZM955.601 566.484V691.835H959.345V566.484H955.601ZM1026.19 564.612H957.473V568.356H1026.19V564.612ZM1101.21 548.402C1080.65 559.179 1055.66 564.612 1026.19 564.612V568.356C1056.12 568.356 1081.73 562.84 1102.95 551.719L1101.21 548.402ZM1148.59 503.264C1137.7 522.567 1121.93 537.607 1101.22 548.399L1102.95 551.719C1124.27 540.612 1140.59 525.07 1151.85 505.104L1148.59 503.264ZM1164.96 436.223C1164.96 461.621 1159.49 483.949 1148.59 503.264L1151.85 505.104C1163.11 485.154 1168.7 462.175 1168.7 436.223H1164.96ZM1148.77 369.172C1159.55 388.49 1164.96 410.821 1164.96 436.223H1168.7C1168.7 410.274 1163.17 387.3 1152.04 367.348L1148.77 369.172ZM1102.33 323.658C1122.66 334.57 1138.12 349.732 1148.77 369.16L1152.05 367.36C1141.04 347.271 1125.04 331.6 1104.1 320.359L1102.33 323.658ZM1028.27 307.078C1057.35 307.078 1082.01 312.634 1102.32 323.653L1104.11 320.364C1083.13 308.98 1057.83 303.334 1028.27 303.334V307.078ZM875.729 307.078H1028.27V303.334H875.729V307.078ZM1012.97 499.104H957.473V502.847H1012.97V499.104ZM1050.98 491.204C1041.14 496.431 1028.51 499.104 1012.97 499.104V502.847C1028.91 502.847 1042.2 500.109 1052.74 494.511L1050.98 491.204ZM1073.24 469.151C1068.39 478.483 1060.99 485.836 1050.98 491.209L1052.75 494.506C1063.38 488.806 1071.34 480.929 1076.56 470.878L1073.24 469.151ZM1080.76 436.223C1080.76 448.675 1078.24 459.632 1073.24 469.143L1076.55 470.886C1081.87 460.762 1084.51 449.192 1084.51 436.223H1080.76ZM1073.25 403.508C1078.24 412.755 1080.76 423.639 1080.76 436.223H1084.51C1084.51 423.133 1081.88 411.614 1076.54 401.731L1073.25 403.508ZM1051.01 381.819C1061.01 386.94 1068.39 394.158 1073.24 403.483L1076.56 401.756C1071.33 391.697 1063.36 383.94 1052.72 378.487L1051.01 381.819ZM1012.6 373.907C1028.26 373.907 1041.02 376.583 1050.99 381.811L1052.73 378.497C1042.06 372.901 1028.65 370.163 1012.6 370.163V373.907ZM957.473 373.907H1012.6V370.163H957.473V373.907ZM959.345 500.976V372.035H955.601V500.976H959.345ZM1220.29 691.835V401.863H1216.55V691.835H1220.29ZM1298.84 689.963H1218.42V693.707H1298.84V689.963ZM1296.97 527.783V691.835H1300.71V527.783H1296.97ZM1305.15 495.502C1299.68 504.884 1296.97 515.664 1296.97 527.783H1300.71C1300.71 516.24 1303.29 506.127 1308.39 497.389L1305.15 495.502ZM1327.77 473.658C1318.29 478.855 1310.74 486.14 1305.16 495.485L1308.38 497.404C1313.62 488.626 1320.68 481.815 1329.57 476.943L1327.77 473.658ZM1360.38 465.689C1348.27 465.689 1337.38 468.332 1327.76 473.663L1329.58 476.938C1338.58 471.949 1348.83 469.433 1360.38 469.433V465.689ZM1378.94 467.027C1372.2 466.136 1366.02 465.689 1360.38 465.689V469.433C1365.82 469.433 1371.85 469.865 1378.45 470.738L1378.94 467.027ZM1394.9 470.109C1390.99 468.936 1385.65 467.913 1378.94 467.027L1378.45 470.738C1385.08 471.614 1390.19 472.605 1393.83 473.696L1394.9 470.109ZM1392.49 400.543V471.904H1396.24V400.543H1392.49ZM1381.89 400.328C1386.49 400.825 1390.49 401.504 1393.91 402.36L1394.82 398.726C1391.19 397.82 1387.01 397.116 1382.3 396.604L1381.89 400.328ZM1369.07 399.582C1373.02 399.582 1377.29 399.829 1381.89 400.328L1382.3 396.604C1377.58 396.095 1373.17 395.838 1369.07 395.838V399.582ZM1327.14 413.179C1339.27 404.119 1353.22 399.582 1369.07 399.582V395.838C1352.45 395.838 1337.7 400.615 1324.9 410.182L1327.14 413.179ZM1301.2 452.985C1306.4 435.295 1315.07 422.084 1327.13 413.187L1324.91 410.174C1312.06 419.653 1302.99 433.625 1297.61 451.93L1301.2 452.985ZM1296.39 454.331H1299.41V450.587H1296.39V454.331ZM1294.51 401.863V452.459H1298.26V401.863H1294.51ZM1218.42 403.735H1296.39V399.991H1218.42V403.735ZM1553.46 695.627C1524.41 695.627 1499.39 689.457 1478.32 677.192L1476.44 680.427C1498.17 693.083 1523.87 699.37 1553.46 699.37V695.627ZM1628.41 677.195C1607.47 689.457 1582.52 695.627 1553.46 695.627V699.37C1583.06 699.37 1608.69 693.083 1630.3 680.424L1628.41 677.195ZM1677.15 625.468C1665.73 647.562 1649.49 664.793 1628.4 677.197L1630.3 680.424C1652 667.656 1668.74 649.898 1680.48 627.188L1677.15 625.468ZM1694.31 547.982C1694.31 577.438 1688.57 603.25 1677.15 625.473L1680.48 627.183C1692.21 604.348 1698.05 577.93 1698.05 547.982H1694.31ZM1677.15 470.309C1688.57 492.4 1694.31 518.272 1694.31 547.982H1698.05C1698.05 517.785 1692.22 491.302 1680.48 468.589L1677.15 470.309ZM1628.41 418.585C1649.49 430.86 1665.73 448.086 1677.15 470.304L1680.48 468.592C1668.74 445.755 1652.01 427.992 1630.29 415.348L1628.41 418.585ZM1553.46 399.961C1582.51 399.961 1607.47 406.193 1628.4 418.578L1630.3 415.355C1608.7 402.569 1583.06 396.217 1553.46 396.217V399.961ZM1478.33 418.58C1499.39 406.193 1524.41 399.961 1553.46 399.961V396.217C1523.86 396.217 1498.16 402.569 1476.43 415.353L1478.33 418.58ZM1429.77 470.304C1441.19 448.084 1457.38 430.857 1478.33 418.583L1476.44 415.35C1454.85 427.997 1438.18 445.757 1426.44 468.592L1429.77 470.304ZM1412.61 547.982C1412.61 518.272 1418.36 492.4 1429.77 470.309L1426.45 468.589C1414.71 491.302 1408.87 517.785 1408.87 547.982H1412.61ZM1429.77 625.473C1418.35 603.25 1412.61 577.438 1412.61 547.982H1408.87C1408.87 577.93 1414.71 604.348 1426.44 627.183L1429.77 625.473ZM1478.34 677.2C1457.38 664.795 1441.19 647.567 1429.77 625.468L1426.45 627.188C1438.18 649.895 1454.85 667.653 1476.43 680.422L1478.34 677.2ZM1553.84 637.074C1567.56 637.074 1579.14 633.18 1588.46 625.304L1586.05 622.443C1577.49 629.671 1566.8 633.33 1553.84 633.33V637.074ZM1518.67 625.321C1528.24 633.183 1540 637.074 1553.84 637.074V633.33C1540.75 633.33 1529.85 629.666 1521.05 622.428L1518.67 625.321ZM1497.52 593.157C1502.26 606.63 1509.29 617.374 1518.65 625.301L1521.07 622.446C1512.3 615.018 1505.61 604.873 1501.04 591.914L1497.52 593.157ZM1490.61 547.416C1490.61 564.447 1492.9 579.697 1497.51 593.142L1501.05 591.929C1496.6 578.946 1494.36 564.115 1494.36 547.416H1490.61ZM1497.51 501.689C1492.9 515.137 1490.61 530.387 1490.61 547.416H1494.36C1494.36 530.716 1496.6 515.888 1501.05 502.905L1497.51 501.689ZM1518.65 469.53C1509.29 477.457 1502.26 488.204 1497.52 501.674L1501.04 502.92C1505.61 489.961 1512.3 479.813 1521.07 472.388L1518.65 469.53ZM1553.84 457.57C1539.99 457.57 1528.22 461.529 1518.66 469.523L1521.06 472.396C1529.87 465.035 1540.75 461.314 1553.84 461.314V457.57ZM1588.47 469.54C1579.15 461.531 1567.56 457.57 1553.84 457.57V461.314C1566.8 461.314 1577.48 465.033 1586.03 472.378L1588.47 469.54ZM1609.22 501.689C1604.6 488.219 1597.71 477.47 1588.47 469.54L1586.03 472.378C1594.67 479.801 1601.24 489.946 1605.68 502.905L1609.22 501.689ZM1616.31 547.416C1616.31 530.382 1613.96 515.124 1609.22 501.674L1605.69 502.92C1610.26 515.898 1612.57 530.721 1612.57 547.416H1616.31ZM1609.22 593.157C1613.96 579.707 1616.31 564.45 1616.31 547.416H1612.57C1612.57 564.11 1610.26 578.936 1605.69 591.914L1609.22 593.157ZM1588.47 625.294C1597.71 617.362 1604.6 606.615 1609.22 593.142L1605.68 591.929C1601.24 604.888 1594.67 615.031 1586.03 622.453L1588.47 625.294ZM1900.84 401.863V462.275H1904.58V401.863H1900.84ZM1848.15 403.735H1902.71V399.991H1848.15V403.735ZM1846.28 332.391V401.863H1850.02V332.391H1846.28ZM1767.73 334.263H1848.15V330.519H1767.73V334.263ZM1769.6 401.863V332.391H1765.86V401.863H1769.6ZM1728.09 403.735H1767.73V399.991H1728.09V403.735ZM1729.96 462.275V401.863H1726.21V462.275H1729.96ZM1767.73 460.403H1728.09V464.147H1767.73V460.403ZM1769.6 613.301V462.275H1765.86V613.301H1769.6ZM1781.2 659.482C1773.39 647.404 1769.48 632.055 1769.6 613.314L1765.86 613.289C1765.73 632.557 1769.75 648.672 1778.05 661.513L1781.2 659.482ZM1814.12 686.327C1799.98 680.549 1789.03 671.602 1781.2 659.482L1778.05 661.513C1786.33 674.315 1797.9 683.741 1812.71 689.794L1814.12 686.327ZM1864.31 693.929C1845.14 694.678 1828.42 692.12 1814.12 686.324L1812.71 689.796C1827.61 695.831 1844.87 698.434 1864.46 697.671L1864.31 693.929ZM1890.57 690.772C1883.43 692.494 1874.68 693.555 1864.32 693.929L1864.45 697.671C1874.98 697.291 1883.99 696.211 1891.44 694.411L1890.57 690.772ZM1907.44 686.462C1903.48 687.697 1897.88 689.132 1890.6 690.765L1891.41 694.419C1898.73 692.776 1904.46 691.316 1908.56 690.036L1907.44 686.462ZM1893.52 628.793L1906.16 688.636L1909.83 687.862L1897.18 628.017L1893.52 628.793ZM1887.03 631.94C1890.81 631.184 1893.69 630.62 1895.69 630.245L1895 626.564C1892.98 626.943 1890.07 627.512 1886.3 628.269L1887.03 631.94ZM1875.34 632.918C1879.22 632.918 1883.1 632.596 1886.97 631.95L1886.36 628.256C1882.68 628.87 1879.01 629.175 1875.34 629.175V632.918ZM1860.3 630.335C1864.72 632.072 1869.74 632.918 1875.34 632.918V629.175C1870.11 629.175 1865.57 628.386 1861.68 626.851L1860.3 630.335ZM1849.92 621.016C1852.38 625.388 1855.84 628.521 1860.28 630.328L1861.69 626.859C1858.08 625.393 1855.25 622.863 1853.18 619.181L1849.92 621.016ZM1846.28 602.731C1846.28 610.309 1847.43 616.453 1849.91 620.993L1853.19 619.201C1851.14 615.438 1850.02 610.004 1850.02 602.731H1846.28ZM1846.28 462.275V602.731H1850.02V462.275H1846.28ZM1902.71 460.403H1848.15V464.147H1902.71V460.403ZM2083 695.627C2053.94 695.627 2028.92 689.457 2007.86 677.192L2005.98 680.427C2027.71 693.083 2053.4 699.37 2083 699.37V695.627ZM2157.94 677.195C2137.01 689.457 2112.05 695.627 2083 695.627V699.37C2112.59 699.37 2138.23 693.083 2159.84 680.424L2157.94 677.195ZM2206.69 625.468C2195.27 647.562 2179.03 664.793 2157.94 677.197L2159.84 680.424C2181.54 667.656 2198.28 649.898 2210.01 627.188L2206.69 625.468ZM2223.85 547.982C2223.85 577.438 2218.11 603.25 2206.69 625.473L2210.02 627.183C2221.75 604.348 2227.59 577.93 2227.59 547.982H2223.85ZM2206.69 470.309C2218.11 492.4 2223.85 518.272 2223.85 547.982H2227.59C2227.59 517.785 2221.75 491.302 2210.01 468.589L2206.69 470.309ZM2157.95 418.585C2179.03 430.86 2195.27 448.086 2206.69 470.304L2210.02 468.592C2198.28 445.755 2181.54 427.992 2159.83 415.348L2157.95 418.585ZM2083 399.961C2112.05 399.961 2137.01 406.193 2157.94 418.578L2159.84 415.355C2138.24 402.569 2112.6 396.217 2083 396.217V399.961ZM2007.87 418.58C2028.93 406.193 2053.95 399.961 2083 399.961V396.217C2053.4 396.217 2027.7 402.569 2005.97 415.353L2007.87 418.58ZM1959.31 470.304C1970.73 448.084 1986.91 430.857 2007.87 418.583L2005.97 415.35C1984.39 427.997 1967.72 445.757 1955.98 468.592L1959.31 470.304ZM1942.15 547.982C1942.15 518.272 1947.89 492.4 1959.31 470.309L1955.98 468.589C1944.24 491.302 1938.41 517.785 1938.41 547.982H1942.15ZM1959.31 625.473C1947.89 603.25 1942.15 577.438 1942.15 547.982H1938.41C1938.41 577.93 1944.25 604.348 1955.98 627.183L1959.31 625.473ZM2007.87 677.2C1986.91 664.795 1970.73 647.567 1959.31 625.468L1955.98 627.188C1967.72 649.895 1984.39 667.653 2005.97 680.422L2007.87 677.2ZM2083.38 637.074C2097.09 637.074 2108.68 633.18 2118 625.304L2115.58 622.443C2107.03 629.671 2096.34 633.33 2083.38 633.33V637.074ZM2048.21 625.321C2057.77 633.183 2069.54 637.074 2083.38 637.074V633.33C2070.28 633.33 2059.39 629.666 2050.58 622.428L2048.21 625.321ZM2027.05 593.157C2031.8 606.63 2038.83 617.374 2048.19 625.301L2050.61 622.446C2041.84 615.018 2035.15 604.873 2030.58 591.914L2027.05 593.157ZM2020.15 547.416C2020.15 564.447 2022.44 579.697 2027.05 593.142L2030.59 591.929C2026.14 578.946 2023.89 564.115 2023.89 547.416H2020.15ZM2027.05 501.689C2022.44 515.137 2020.15 530.387 2020.15 547.416H2023.89C2023.89 530.716 2026.14 515.888 2030.59 502.905L2027.05 501.689ZM2048.19 469.53C2038.83 477.457 2031.8 488.204 2027.05 501.674L2030.58 502.92C2035.15 489.961 2041.84 479.813 2050.61 472.388L2048.19 469.53ZM2083.38 457.57C2069.53 457.57 2057.76 461.529 2048.2 469.523L2050.6 472.396C2059.4 465.035 2070.29 461.314 2083.38 461.314V457.57ZM2118.01 469.54C2108.69 461.531 2097.1 457.57 2083.38 457.57V461.314C2096.33 461.314 2107.02 465.033 2115.57 472.378L2118.01 469.54ZM2138.76 501.689C2134.14 488.219 2127.24 477.47 2118.01 469.54L2115.57 472.378C2124.21 479.801 2130.78 489.946 2135.22 502.905L2138.76 501.689ZM2145.85 547.416C2145.85 530.382 2143.5 515.124 2138.76 501.674L2135.23 502.92C2139.8 515.898 2142.1 530.721 2142.1 547.416H2145.85ZM2138.76 593.157C2143.5 579.707 2145.85 564.45 2145.85 547.416H2142.1C2142.1 564.11 2139.8 578.936 2135.23 591.914L2138.76 593.157ZM2118.01 625.294C2127.24 617.362 2134.14 606.615 2138.76 593.142L2135.22 591.929C2130.78 604.888 2124.21 615.031 2115.57 622.453L2118.01 625.294ZM2409.03 695.627C2379.59 695.627 2354.39 689.394 2333.33 677.008L2331.43 680.235C2353.17 693.021 2379.06 699.37 2409.03 699.37V695.627ZM2475.21 681.667C2456.64 690.949 2434.6 695.627 2409.03 695.627V699.37C2435.06 699.37 2457.69 694.611 2476.88 685.014L2475.21 681.667ZM2518.83 643.066C2508.32 659.502 2493.81 672.368 2475.21 681.667L2476.88 685.014C2496.04 675.435 2511.09 662.122 2521.98 645.081L2518.83 643.066ZM2536.68 585.445C2535.43 607.309 2529.46 626.497 2518.83 643.062L2521.98 645.086C2533.01 627.919 2539.12 608.095 2540.4 585.657L2536.68 585.445ZM2462.64 587.422H2538.52V583.678H2462.64V587.422ZM2454.57 612.837C2459.66 605.269 2462.95 596.247 2464.49 585.824L2460.79 585.275C2459.31 595.241 2456.19 603.715 2451.46 610.748L2454.57 612.837ZM2435.55 629.883C2443.27 625.957 2449.62 620.262 2454.57 612.829L2451.46 610.753C2446.85 617.669 2440.98 622.923 2433.85 626.547L2435.55 629.883ZM2409.97 635.751C2419.42 635.751 2427.97 633.807 2435.56 629.878L2433.84 626.554C2426.84 630.175 2418.9 632.007 2409.97 632.007V635.751ZM2376.21 625.196C2385.87 632.247 2397.15 635.751 2409.97 635.751V632.007C2397.88 632.007 2387.38 628.715 2378.42 622.174L2376.21 625.196ZM2353.86 594.739C2359.12 607.96 2366.56 618.153 2376.21 625.196L2378.42 622.174C2369.44 615.625 2362.4 606.058 2357.34 593.354L2353.86 594.739ZM2346.18 546.849C2346.18 565.511 2348.72 581.487 2353.86 594.724L2357.35 593.369C2352.42 580.68 2349.92 565.191 2349.92 546.849H2346.18ZM2354.05 499.523C2348.78 512.641 2346.18 528.435 2346.18 546.849H2349.92C2349.92 528.767 2352.48 513.475 2357.53 500.918L2354.05 499.523ZM2376.21 469.443C2366.68 476.361 2359.32 486.43 2354.05 499.523L2357.53 500.918C2362.58 488.337 2369.57 478.897 2378.41 472.473L2376.21 469.443ZM2409.97 458.893C2397.15 458.893 2385.87 462.397 2376.21 469.448L2378.42 472.47C2387.38 465.929 2397.88 462.637 2409.97 462.637V458.893ZM2446.97 472.835C2437.5 463.5 2425.11 458.893 2409.97 458.893V462.637C2424.29 462.637 2435.68 466.965 2444.34 475.5L2446.97 472.835ZM2464.49 508.82C2462.3 494 2456.48 481.957 2446.95 472.817L2444.36 475.52C2453.2 483.999 2458.7 495.24 2460.79 509.367L2464.49 508.82ZM2538.52 507.223H2462.64V510.966H2538.52V507.223ZM2518.66 451.608C2529.54 467.908 2535.55 487.079 2536.65 509.187L2540.4 509C2539.25 486.302 2533.06 466.458 2521.78 449.531L2518.66 451.608ZM2474.29 413.556C2493.01 422.606 2507.77 435.29 2518.66 451.608L2521.78 449.531C2510.5 432.624 2495.2 419.509 2475.92 410.184L2474.29 413.556ZM2408.65 399.961C2433.72 399.961 2455.58 404.511 2474.29 413.556L2475.92 410.184C2456.61 400.852 2434.18 396.217 2408.65 396.217V399.961ZM2333.72 418.762C2354.65 406.253 2379.6 399.961 2408.65 399.961V396.217C2379.05 396.217 2353.41 402.634 2331.8 415.548L2333.72 418.762ZM2285.15 470.681C2296.57 448.46 2312.75 431.167 2333.71 418.767L2331.81 415.545C2310.22 428.314 2293.56 446.137 2281.82 468.971L2285.15 470.681ZM2268.18 547.982C2268.18 518.524 2273.86 492.774 2285.15 470.678L2281.82 468.974C2270.21 491.683 2264.44 518.037 2264.44 547.982H2268.18ZM2284.97 624.922C2273.79 602.694 2268.18 577.064 2268.18 547.982H2264.44C2264.44 577.551 2270.15 603.774 2281.63 626.601L2284.97 624.922ZM2333.34 677.015C2312.38 664.488 2296.26 647.135 2284.97 624.914L2281.63 626.609C2293.24 649.446 2309.84 667.331 2331.42 680.227L2333.34 677.015ZM2721.04 695.627C2691.99 695.627 2666.96 689.457 2645.89 677.192L2644.02 680.427C2665.74 693.083 2691.44 699.37 2721.04 699.37V695.627ZM2795.99 677.195C2775.05 689.457 2750.1 695.627 2721.04 695.627V699.37C2750.65 699.37 2776.28 693.083 2797.87 680.424L2795.99 677.195ZM2844.74 625.468C2833.31 647.562 2817.06 664.793 2795.97 677.197L2797.89 680.424C2819.58 667.656 2836.33 649.898 2848.06 627.188L2844.74 625.468ZM2861.89 547.982C2861.89 577.438 2856.14 603.25 2844.74 625.473L2848.06 627.183C2859.79 604.348 2865.63 577.93 2865.63 547.982H2861.89ZM2844.74 470.309C2856.14 492.4 2861.89 518.272 2861.89 547.982H2865.63C2865.63 517.785 2859.79 491.302 2848.06 468.589L2844.74 470.309ZM2795.99 418.585C2817.06 430.86 2833.31 448.086 2844.74 470.304L2848.06 468.592C2836.33 445.755 2819.58 427.992 2797.87 415.348L2795.99 418.585ZM2721.04 399.961C2750.1 399.961 2775.05 406.193 2795.97 418.578L2797.89 415.355C2776.28 402.569 2750.65 396.217 2721.04 396.217V399.961ZM2645.92 418.58C2666.96 406.193 2691.99 399.961 2721.04 399.961V396.217C2691.44 396.217 2665.74 402.569 2644.02 415.353L2645.92 418.58ZM2597.35 470.304C2608.78 448.084 2624.95 430.857 2645.89 418.583L2644.02 415.35C2622.43 427.997 2605.76 445.757 2594.03 468.592L2597.35 470.304ZM2580.18 547.982C2580.18 518.272 2585.94 492.4 2597.35 470.309L2594.03 468.589C2582.28 491.302 2576.44 517.785 2576.44 547.982H2580.18ZM2597.35 625.473C2585.92 603.25 2580.18 577.438 2580.18 547.982H2576.44C2576.44 577.93 2582.28 604.348 2594.03 627.183L2597.35 625.473ZM2645.92 677.2C2624.95 664.795 2608.78 647.567 2597.35 625.468L2594.03 627.188C2605.76 649.895 2622.43 667.653 2644 680.422L2645.92 677.2ZM2721.42 637.074C2735.15 637.074 2746.73 633.18 2756.04 625.304L2753.62 622.443C2745.08 629.671 2734.37 633.33 2721.42 633.33V637.074ZM2686.25 625.321C2695.81 633.183 2707.57 637.074 2721.42 637.074V633.33C2708.32 633.33 2697.43 629.666 2688.62 622.428L2686.25 625.321ZM2665.09 593.157C2669.83 606.63 2676.87 617.374 2686.23 625.301L2688.65 622.446C2679.89 615.018 2673.2 604.873 2668.63 591.914L2665.09 593.157ZM2658.2 547.416C2658.2 564.447 2660.47 579.697 2665.09 593.142L2668.63 591.929C2664.19 578.946 2661.94 564.115 2661.94 547.416H2658.2ZM2665.09 501.689C2660.47 515.137 2658.2 530.387 2658.2 547.416H2661.94C2661.94 530.716 2664.19 515.888 2668.63 502.905L2665.09 501.689ZM2686.23 469.53C2676.87 477.457 2669.83 488.204 2665.09 501.674L2668.63 502.92C2673.2 489.961 2679.89 479.813 2688.65 472.388L2686.23 469.53ZM2721.42 457.57C2707.57 457.57 2695.81 461.529 2686.23 469.523L2688.65 472.396C2697.43 465.035 2708.34 461.314 2721.42 461.314V457.57ZM2756.06 469.54C2746.73 461.531 2735.15 457.57 2721.42 457.57V461.314C2734.37 461.314 2745.05 465.033 2753.62 472.378L2756.06 469.54ZM2776.8 501.689C2772.18 488.219 2765.3 477.47 2756.06 469.538L2753.62 472.378C2762.25 479.801 2768.81 489.946 2773.26 502.905L2776.8 501.689ZM2783.89 547.416C2783.89 530.382 2781.54 515.124 2776.8 501.674L2773.26 502.92C2777.85 515.898 2780.15 530.721 2780.15 547.416H2783.89ZM2776.8 593.157C2781.54 579.707 2783.89 564.45 2783.89 547.416H2780.15C2780.15 564.11 2777.85 578.936 2773.26 591.914L2776.8 593.157ZM2756.06 625.294C2765.3 617.362 2772.18 606.615 2776.8 593.142L2773.26 591.929C2768.81 604.888 2762.25 615.031 2753.62 622.453L2756.06 625.294ZM2994.61 305.206V691.835H2998.36V305.206H2994.61ZM2916.04 307.078H2996.49V303.334H2916.04V307.078ZM2917.92 691.835V305.206H2914.17V691.835H2917.92ZM2996.49 689.963H2916.04V693.707H2996.49V689.963ZM4.37133 317.725V265.495H0.627565V317.725H4.37133ZM157.074 315.854H2.49945V319.597H157.074V315.854ZM4.24733 575.706L158.679 318.689L155.47 316.76L1.03831 573.779L4.24733 575.706ZM48.3773 600.038L3.60693 573.138L1.67873 576.348L46.4492 603.248L48.3773 600.038ZM247.88 264.377L45.8088 600.68L49.0177 602.609L251.09 266.304L247.88 264.377ZM188.55 267.212H249.485V263.468H188.55V267.212ZM190.063 266.458L190.155 266.304L186.946 264.377L186.854 264.529L190.063 266.458ZM2.49945 267.367H188.458V263.623H2.49945V267.367ZM669.129 317.725V265.495H665.385V317.725H669.129ZM512.677 319.597H667.257V315.854H512.677V319.597ZM511.072 318.689L665.527 575.706L668.734 573.777L514.282 316.76L511.072 318.689ZM666.166 573.135L621.388 600.038L623.318 603.248L668.095 576.345L666.166 573.135ZM623.959 600.677L421.858 264.377L418.649 266.304L620.749 602.606L623.959 600.677ZM420.253 267.212H481.197V263.468H420.253V267.212ZM479.592 266.304L479.684 266.458L482.894 264.529L482.802 264.377L479.592 266.304ZM667.257 263.623H481.289V267.367H667.257V263.623Z" fill="white" fill-opacity="0.8"/>
<path d="M361.411 2.53009H359.54V0.658203M361.411 2.53009V0.658203H359.54M361.411 2.53009V725.06M361.411 2.53009H357.668V725.06H361.411M359.54 0.658203H307.309M359.54 0.658203V4.40197H307.309V0.658203M307.309 0.658203V2.53009H305.437M307.309 0.658203H305.437V2.53009M305.437 2.53009V725.06M305.437 2.53009H309.181V725.06H305.437M359.54 726.932V725.06H361.411M359.54 726.932H361.411V725.06M359.54 726.932H307.309M359.54 726.932V723.188H307.309V726.932M305.437 725.06H307.309V726.932M305.437 725.06V726.932H307.309M873.858 691.835H875.729V693.707M873.858 691.835V693.707H875.729M873.858 691.835V305.206M873.858 691.835H877.601V305.206H873.858M875.729 693.707V689.963H957.473V693.707M875.729 693.707H957.473M875.729 303.334V305.206H873.858M875.729 303.334H873.858V305.206M875.729 303.334H1028.27M875.729 303.334V307.078H1028.27M957.473 693.707V691.835H959.345M957.473 693.707H959.345V691.835M959.345 691.835H955.601V566.484M959.345 691.835V566.484H955.601M957.473 564.612V566.484H955.601M957.473 564.612H955.601V566.484M957.473 564.612H1026.19M957.473 564.612V568.356H1026.19M1101.22 548.399L1102.08 550.059L1101.21 548.402M1101.22 548.399L1101.21 548.402M1101.22 548.399C1121.93 537.607 1137.7 522.567 1148.59 503.264M1101.22 548.399L1102.95 551.719C1124.27 540.612 1140.59 525.07 1151.85 505.104M1101.21 548.402C1080.65 559.179 1055.66 564.612 1026.19 564.612M1101.21 548.402L1102.95 551.719C1081.73 562.84 1056.12 568.356 1026.19 568.356M1150.22 504.185L1148.59 503.264M1148.59 503.264L1151.85 505.104M1148.59 503.264C1159.49 483.949 1164.96 461.621 1164.96 436.223M1148.77 369.16L1150.41 368.261L1148.77 369.172M1148.77 369.16L1148.77 369.172M1148.77 369.16C1138.12 349.732 1122.66 334.57 1102.33 323.658M1148.77 369.16L1152.05 367.36C1141.04 347.271 1125.04 331.6 1104.1 320.359L1102.33 323.658M1148.77 369.172C1159.55 388.49 1164.96 410.821 1164.96 436.223M1148.77 369.172L1152.04 367.348C1163.17 387.3 1168.7 410.274 1168.7 436.223M1102.32 323.653L1103.21 322.008L1102.33 323.658M1102.32 323.653L1102.33 323.658M1102.32 323.653C1082.01 312.634 1057.35 307.078 1028.27 307.078M1102.32 323.653L1104.11 320.364C1083.13 308.98 1057.83 303.334 1028.27 303.334M955.601 500.976H957.473V502.847M955.601 500.976V502.847H957.473M955.601 500.976V372.035M955.601 500.976H959.345V372.035H955.601M957.473 502.847V499.104H1012.97M957.473 502.847H1012.97M1052.74 494.511L1051.86 492.859L1052.75 494.506M1052.74 494.511L1052.75 494.506M1052.74 494.511C1042.2 500.109 1028.91 502.847 1012.97 502.847M1052.74 494.511L1050.98 491.204C1041.14 496.431 1028.51 499.104 1012.97 499.104M1052.75 494.506L1050.98 491.209C1060.99 485.836 1068.39 478.483 1073.24 469.151M1052.75 494.506C1063.38 488.806 1071.34 480.929 1076.56 470.878L1073.24 469.151M1073.24 469.143L1074.9 470.015L1073.24 469.151M1073.24 469.143L1073.24 469.151M1073.24 469.143C1078.24 459.632 1080.76 448.675 1080.76 436.223M1073.24 469.143L1076.55 470.886C1081.87 460.762 1084.51 449.192 1084.51 436.223M1073.24 403.483L1074.9 402.619L1073.25 403.508M1073.24 403.483L1073.25 403.508M1073.24 403.483C1068.39 394.158 1061.01 386.94 1051.01 381.819M1073.24 403.483L1076.56 401.756C1071.33 391.697 1063.36 383.94 1052.72 378.487L1051.01 381.819M1073.25 403.508C1078.24 412.755 1080.76 423.639 1080.76 436.223M1073.25 403.508L1076.54 401.731C1081.88 411.614 1084.51 423.133 1084.51 436.223M1050.99 381.811L1051.86 380.154L1051.01 381.819M1050.99 381.811L1051.01 381.819M1050.99 381.811C1041.02 376.583 1028.26 373.907 1012.6 373.907M1050.99 381.811L1052.73 378.497C1042.06 372.901 1028.65 370.163 1012.6 370.163M957.473 370.163V372.035H955.601M957.473 370.163H955.601V372.035M957.473 370.163H1012.6M957.473 370.163V373.907H1012.6M1216.55 691.835H1218.42V693.707M1216.55 691.835V693.707H1218.42M1216.55 691.835V401.863M1216.55 691.835H1220.29V401.863H1216.55M1218.42 693.707V689.963H1298.84V693.707M1218.42 693.707H1298.84M1218.42 399.991V401.863H1216.55M1218.42 399.991H1216.55V401.863M1218.42 399.991H1296.39M1218.42 399.991V403.735H1296.39V399.991M1298.84 693.707V691.835H1300.71M1298.84 693.707H1300.71V691.835M1300.71 691.835H1296.97V527.783M1300.71 691.835V527.783M1305.16 495.485L1306.77 496.446L1305.15 495.502M1305.16 495.485L1305.15 495.502M1305.16 495.485C1310.74 486.14 1318.29 478.855 1327.77 473.658L1329.57 476.943M1305.16 495.485L1308.38 497.404C1313.62 488.626 1320.68 481.815 1329.57 476.943M1305.15 495.502C1299.68 504.884 1296.97 515.664 1296.97 527.783M1305.15 495.502L1308.39 497.389C1303.29 506.127 1300.71 516.24 1300.71 527.783M1329.57 476.943L1328.67 475.301L1329.58 476.938M1329.57 476.943L1329.58 476.938M1329.58 476.938L1327.76 473.663C1337.38 468.332 1348.27 465.689 1360.38 465.689M1329.58 476.938C1338.58 471.949 1348.83 469.433 1360.38 469.433M1378.7 468.881L1378.45 470.738M1378.45 470.738C1371.85 469.865 1365.82 469.433 1360.38 469.433M1378.45 470.738L1378.94 467.027M1378.45 470.738C1385.08 471.614 1390.19 472.605 1393.83 473.696M1393.83 473.696L1394.37 471.904H1396.24M1393.83 473.696L1396.24 474.42V471.904M1393.83 473.696L1394.9 470.109C1390.99 468.936 1385.65 467.913 1378.94 467.027M1396.24 471.904H1392.49V400.543H1396.24M1396.24 471.904V400.543M1396.24 400.543H1394.37L1394.82 398.726M1396.24 400.543V399.08L1394.82 398.726M1394.82 398.726L1393.91 402.36C1390.49 401.504 1386.49 400.825 1381.89 400.328M1394.82 398.726C1391.19 397.82 1387.01 397.116 1382.3 396.604M1382.09 398.466L1382.3 396.604M1382.3 396.604L1381.89 400.328M1382.3 396.604C1377.58 396.095 1373.17 395.838 1369.07 395.838M1327.13 413.187L1326.02 411.682L1327.14 413.179M1327.13 413.187L1327.14 413.179M1327.13 413.187C1315.07 422.084 1306.4 435.295 1301.2 452.985M1327.13 413.187L1324.91 410.174C1312.06 419.653 1302.99 433.625 1297.61 451.93L1301.2 452.985M1327.14 413.179C1339.27 404.119 1353.22 399.582 1369.07 399.582M1327.14 413.179L1324.9 410.182C1337.7 400.615 1352.45 395.838 1369.07 395.838M1299.41 454.331V452.459L1301.2 452.985M1299.41 454.331H1300.81L1301.2 452.985M1299.41 454.331H1296.39M1299.41 454.331V450.587H1296.39V454.331M1294.51 452.459H1296.39V454.331M1294.51 452.459V454.331H1296.39M1294.51 452.459V401.863H1298.26M1294.51 452.459H1298.26V401.863M1298.26 401.863H1296.39V399.991M1298.26 401.863V399.991H1296.39M1476.43 680.422L1477.38 678.81L1476.44 680.427M1476.43 680.422L1476.44 680.427M1476.43 680.422C1454.85 667.653 1438.18 649.895 1426.45 627.188M1476.43 680.422L1478.34 677.2C1457.38 664.795 1441.19 647.567 1429.77 625.468L1426.45 627.188M1476.44 680.427L1478.32 677.192C1499.39 689.457 1524.41 695.627 1553.46 695.627M1476.44 680.427C1498.17 693.083 1523.87 699.37 1553.46 699.37M1629.35 678.81L1630.3 680.424M1630.3 680.424C1608.69 693.083 1583.06 699.37 1553.46 699.37M1630.3 680.424L1628.41 677.195C1607.47 689.457 1582.52 695.627 1553.46 695.627M1630.3 680.424L1628.4 677.197C1649.49 664.793 1665.73 647.562 1677.15 625.468L1680.48 627.188M1630.3 680.424C1652 667.656 1668.74 649.898 1680.48 627.188M1680.48 627.188L1678.81 626.327L1680.48 627.183M1680.48 627.188L1680.48 627.183M1680.48 627.183L1677.15 625.473C1688.57 603.25 1694.31 577.438 1694.31 547.982M1680.48 627.183C1692.21 604.348 1698.05 577.93 1698.05 547.982M1677.15 470.304L1678.81 469.448L1677.15 470.309M1677.15 470.304L1677.15 470.309M1677.15 470.304C1665.73 448.086 1649.49 430.86 1628.41 418.585M1677.15 470.304L1680.48 468.592C1668.74 445.755 1652.01 427.992 1630.29 415.348L1628.41 418.585M1677.15 470.309C1688.57 492.4 1694.31 518.272 1694.31 547.982M1677.15 470.309L1680.48 468.589C1692.22 491.302 1698.05 517.785 1698.05 547.982M1628.4 418.578L1629.35 416.968L1628.41 418.585M1628.4 418.578L1628.41 418.585M1628.4 418.578C1607.47 406.193 1582.51 399.961 1553.46 399.961M1628.4 418.578L1630.3 415.355C1608.7 402.569 1583.06 396.217 1553.46 396.217M1478.33 418.583L1477.38 416.968L1478.33 418.58M1478.33 418.583L1478.33 418.58M1478.33 418.583C1457.38 430.857 1441.19 448.084 1429.77 470.304M1478.33 418.583L1476.44 415.351C1454.85 427.997 1438.18 445.757 1426.44 468.592L1429.77 470.304M1478.33 418.58C1499.39 406.193 1524.41 399.961 1553.46 399.961M1478.33 418.58L1476.43 415.353C1498.16 402.569 1523.86 396.217 1553.46 396.217M1429.77 470.309L1428.11 469.448L1429.77 470.304M1429.77 470.309L1429.77 470.304M1429.77 470.309C1418.36 492.4 1412.61 518.272 1412.61 547.982M1429.77 470.309L1426.45 468.589C1414.71 491.302 1408.87 517.785 1408.87 547.982M1426.44 627.183L1428.11 626.327L1426.45 627.188M1426.44 627.183L1426.45 627.188M1426.44 627.183C1414.71 604.348 1408.87 577.93 1408.87 547.982M1426.44 627.183L1429.77 625.473C1418.35 603.25 1412.61 577.438 1412.61 547.982M1588.46 625.304L1587.25 623.873L1588.47 625.294M1588.46 625.304L1588.47 625.294M1588.46 625.304C1579.14 633.18 1567.56 637.074 1553.84 637.074M1588.46 625.304L1586.05 622.443C1577.5 629.671 1566.8 633.33 1553.84 633.33M1588.47 625.294C1597.71 617.362 1604.6 606.615 1609.22 593.142L1605.68 591.929M1588.47 625.294L1586.03 622.453C1594.67 615.031 1601.24 604.888 1605.68 591.929M1518.65 625.301L1519.86 623.873L1518.67 625.321M1518.65 625.301L1518.67 625.321M1518.65 625.301C1509.29 617.374 1502.26 606.63 1497.52 593.157M1518.65 625.301L1521.07 622.446C1512.3 615.018 1505.61 604.873 1501.04 591.914L1497.52 593.157M1518.67 625.321C1528.24 633.183 1540 637.074 1553.84 637.074M1518.67 625.321L1521.05 622.428C1529.85 629.666 1540.75 633.33 1553.84 633.33M1497.51 593.142L1499.28 592.536L1497.52 593.157M1497.51 593.142L1497.52 593.157M1497.51 593.142C1492.9 579.697 1490.61 564.447 1490.61 547.416M1497.51 593.142L1501.05 591.929C1496.6 578.946 1494.36 564.115 1494.36 547.416M1497.52 501.674L1499.28 502.298L1497.51 501.689M1497.52 501.674L1497.51 501.689M1497.52 501.674C1502.26 488.204 1509.29 477.457 1518.65 469.53M1497.52 501.674L1501.04 502.92C1505.61 489.961 1512.3 479.813 1521.07 472.388L1518.65 469.53M1497.51 501.689C1492.9 515.137 1490.61 530.387 1490.61 547.416M1497.51 501.689L1501.05 502.905C1496.6 515.888 1494.36 530.716 1494.36 547.416M1518.66 469.523L1519.86 470.958L1518.65 469.53M1518.66 469.523L1518.65 469.53M1518.66 469.523C1528.22 461.529 1539.99 457.57 1553.84 457.57M1518.66 469.523L1521.06 472.396C1529.87 465.035 1540.75 461.314 1553.84 461.314M1587.25 470.958L1588.47 469.54M1588.47 469.54C1579.15 461.531 1567.56 457.57 1553.84 457.57M1588.47 469.54L1586.03 472.378M1588.47 469.54C1597.71 477.47 1604.6 488.219 1609.22 501.689L1605.68 502.905M1605.68 502.905L1607.45 502.298L1605.69 502.92M1605.68 502.905L1605.69 502.92M1605.68 502.905C1601.24 489.946 1594.67 479.801 1586.03 472.378M1605.69 502.92L1609.22 501.674C1613.96 515.124 1616.31 530.382 1616.31 547.416M1605.69 502.92C1610.26 515.898 1612.57 530.721 1612.57 547.416M1605.69 591.914L1607.45 592.536L1605.68 591.929M1605.69 591.914L1605.68 591.929M1605.69 591.914C1610.26 578.936 1612.57 564.11 1612.57 547.416M1605.69 591.914L1609.22 593.157C1613.96 579.707 1616.31 564.45 1616.31 547.416M1904.58 401.863H1902.71V399.991M1904.58 401.863V399.991H1902.71M1904.58 401.863V462.275M1904.58 401.863H1900.84V462.275H1904.58M1902.71 399.991V403.735H1848.15M1902.71 399.991H1848.15V403.735M1902.71 464.147V462.275H1904.58M1902.71 464.147H1904.58V462.275M1902.71 464.147H1848.15V460.403M1902.71 464.147V460.403H1848.15M1846.28 401.863H1848.15V403.735M1846.28 401.863V403.735H1848.15M1846.28 401.863V332.391H1850.02M1846.28 401.863H1850.02V332.391M1850.02 332.391H1848.15V330.519M1850.02 332.391V330.519H1848.15M1848.15 330.519V334.263H1767.73V330.519M1848.15 330.519H1767.73M1767.73 330.519V332.391H1765.86M1767.73 330.519H1765.86V332.391M1765.86 332.391H1769.6V401.863M1765.86 332.391V401.863H1769.6M1767.73 403.735V401.863H1769.6M1767.73 403.735H1769.6V401.863M1767.73 403.735H1728.09V399.991M1767.73 403.735V399.991H1728.09M1728.09 399.991V401.863H1726.21M1728.09 399.991H1726.21V401.863M1726.21 401.863H1729.96V462.275H1726.21M1726.21 401.863V462.275M1726.21 462.275H1728.09V464.147M1726.21 462.275V464.147H1728.09M1728.09 464.147V460.403H1767.73M1728.09 464.147H1767.73V460.403M1769.6 462.275H1767.73V460.403M1769.6 462.275V460.403H1767.73M1769.6 462.275V613.301M1769.6 462.275H1765.86V613.301H1769.6M1769.6 613.314L1767.73 613.301H1769.6M1769.6 613.314V613.301M1769.6 613.314C1769.48 632.055 1773.39 647.404 1781.2 659.482M1769.6 613.314L1765.86 613.289C1765.73 632.557 1769.75 648.672 1778.05 661.513M1812.71 689.794L1813.42 688.059L1812.71 689.796M1812.71 689.794L1812.71 689.796M1812.71 689.794C1797.9 683.741 1786.33 674.315 1778.05 661.513M1812.71 689.794L1814.12 686.327C1799.98 680.549 1789.03 671.601 1781.2 659.482M1812.71 689.796L1814.12 686.324C1828.42 692.12 1845.14 694.678 1864.31 693.929M1812.71 689.796C1827.61 695.831 1844.87 698.434 1864.46 697.671L1864.31 693.929M1864.32 693.929L1864.39 695.801L1864.31 693.929M1864.32 693.929H1864.31M1864.32 693.929C1874.68 693.555 1883.43 692.494 1890.57 690.772M1864.32 693.929L1864.45 697.671C1874.98 697.291 1883.99 696.211 1891.44 694.411L1890.57 690.772M1890.6 690.765L1891.01 692.592L1890.57 690.772M1890.6 690.765L1890.57 690.772M1890.6 690.765C1897.88 689.132 1903.48 687.697 1907.44 686.462L1908.56 690.036M1890.6 690.765L1891.41 694.419C1898.73 692.776 1904.46 691.316 1908.56 690.036M1908.56 690.036L1908 688.249L1909.83 687.862M1908.56 690.036L1910.18 689.527L1909.83 687.862M1909.83 687.862L1906.16 688.636L1893.52 628.793L1897.18 628.017M1909.83 687.862L1897.18 628.017M1897.18 628.017L1895.35 628.403L1895 626.564M1897.18 628.017L1896.8 626.227L1895 626.564M1895 626.564L1895.69 630.245C1893.69 630.62 1890.81 631.184 1887.03 631.94M1895 626.564C1892.98 626.943 1890.07 627.512 1886.3 628.269L1887.03 631.94M1886.97 631.95L1886.66 630.103L1887.03 631.94M1886.97 631.95L1887 631.945L1887.03 631.94M1886.97 631.95C1883.1 632.596 1879.22 632.918 1875.34 632.918M1886.97 631.95L1886.36 628.256C1882.68 628.87 1879.01 629.175 1875.34 629.175M1860.28 630.328L1860.99 628.593L1860.3 630.335M1860.28 630.328L1860.3 630.335M1860.28 630.328C1855.84 628.521 1852.38 625.388 1849.92 621.016M1860.28 630.328L1861.69 626.858C1858.08 625.393 1855.25 622.863 1853.18 619.181L1849.92 621.016M1860.3 630.335C1864.72 632.072 1869.74 632.918 1875.34 632.918M1860.3 630.335L1861.68 626.851C1865.57 628.386 1870.11 629.175 1875.34 629.175M1849.92 621.016L1849.91 620.996L1851.55 620.097L1849.92 621.016ZM1848.15 460.403V462.275H1846.28M1848.15 460.403H1846.28V462.275M1846.28 462.275V602.731M1846.28 462.275H1850.02V602.731M2005.97 680.422L2006.92 678.81L2005.98 680.427M2005.97 680.422L2005.98 680.427M2005.97 680.422C1984.39 667.653 1967.72 649.895 1955.98 627.188M2005.97 680.422L2007.87 677.2C1986.91 664.795 1970.73 647.567 1959.31 625.468L1955.98 627.188M2005.98 680.427L2007.86 677.192C2028.92 689.457 2053.94 695.627 2083 695.627M2005.98 680.427C2027.71 693.083 2053.4 699.37 2083 699.37M2159.84 680.424L2158.89 678.81L2159.84 680.424M2159.84 680.424H2159.84M2159.84 680.424C2138.23 693.083 2112.59 699.37 2083 699.37M2159.84 680.424L2157.94 677.195C2137.01 689.457 2112.05 695.627 2083 695.627M2159.84 680.424L2157.94 677.197C2179.03 664.793 2195.27 647.562 2206.69 625.468L2210.01 627.188M2159.84 680.424C2181.54 667.656 2198.28 649.898 2210.01 627.188M2210.01 627.188L2208.35 626.327L2210.02 627.183M2210.01 627.188L2210.02 627.183M2210.02 627.183L2206.69 625.473C2218.11 603.25 2223.85 577.438 2223.85 547.982M2210.02 627.183C2221.75 604.348 2227.59 577.93 2227.59 547.982M2206.69 470.304L2208.35 469.448L2206.69 470.309M2206.69 470.304L2206.69 470.309M2206.69 470.304C2195.27 448.086 2179.03 430.86 2157.95 418.585M2206.69 470.304L2210.02 468.592C2198.28 445.755 2181.54 427.992 2159.83 415.348L2157.95 418.585M2206.69 470.309C2218.11 492.4 2223.85 518.272 2223.85 547.982M2206.69 470.309L2210.01 468.589C2221.75 491.302 2227.59 517.785 2227.59 547.982M2157.94 418.578L2158.89 416.968L2157.95 418.585M2157.94 418.578L2157.95 418.585M2157.94 418.578C2137.01 406.193 2112.05 399.961 2083 399.961M2157.94 418.578L2159.84 415.355C2138.24 402.569 2112.6 396.217 2083 396.217M2007.87 418.583L2006.92 416.968L2007.87 418.58M2007.87 418.583L2007.87 418.58M2007.87 418.583C1986.91 430.857 1970.73 448.084 1959.31 470.304M2007.87 418.583L2005.97 415.351C1984.39 427.997 1967.72 445.757 1955.98 468.592L1959.31 470.304M2007.87 418.58C2028.93 406.193 2053.95 399.961 2083 399.961M2007.87 418.58L2005.97 415.353C2027.7 402.569 2053.4 396.217 2083 396.217M1959.31 470.309L1957.65 469.448L1959.31 470.304M1959.31 470.309L1959.31 470.304M1959.31 470.309C1947.89 492.4 1942.15 518.272 1942.15 547.982M1959.31 470.309L1955.98 468.589C1944.24 491.302 1938.41 517.785 1938.41 547.982M1955.98 627.183L1957.65 626.327L1955.98 627.188M1955.98 627.183L1955.98 627.188M1955.98 627.183C1944.25 604.348 1938.41 577.93 1938.41 547.982M1955.98 627.183L1959.31 625.473C1947.89 603.25 1942.15 577.438 1942.15 547.982M2118 625.304L2116.79 623.873L2118.01 625.294M2118 625.304L2118.01 625.294M2118 625.304C2108.68 633.18 2097.09 637.074 2083.38 637.074M2118 625.304L2115.58 622.443C2107.03 629.671 2096.34 633.33 2083.38 633.33M2118.01 625.294C2127.24 617.362 2134.14 606.615 2138.76 593.142L2135.22 591.929M2118.01 625.294L2115.57 622.453C2124.21 615.031 2130.78 604.888 2135.22 591.929M2048.19 625.301L2049.4 623.873L2048.21 625.321M2048.19 625.301L2048.21 625.321M2048.19 625.301C2038.83 617.374 2031.8 606.63 2027.05 593.157M2048.19 625.301L2050.61 622.446C2041.84 615.018 2035.15 604.873 2030.58 591.914L2027.05 593.157M2048.21 625.321C2057.77 633.183 2069.54 637.074 2083.38 637.074M2048.21 625.321L2050.58 622.428C2059.39 629.666 2070.28 633.33 2083.38 633.33M2027.05 593.142L2028.82 592.536L2027.05 593.157M2027.05 593.142L2027.05 593.157M2027.05 593.142C2022.44 579.697 2020.15 564.447 2020.15 547.416M2027.05 593.142L2030.59 591.929C2026.14 578.946 2023.89 564.115 2023.89 547.416M2027.05 501.674L2028.82 502.298L2027.05 501.689M2027.05 501.674L2027.05 501.689M2027.05 501.674C2031.8 488.204 2038.83 477.457 2048.19 469.53M2027.05 501.674L2030.58 502.92C2035.15 489.961 2041.84 479.813 2050.61 472.388L2048.19 469.53M2027.05 501.689C2022.44 515.137 2020.15 530.387 2020.15 547.416M2027.05 501.689L2030.59 502.905C2026.14 515.888 2023.89 530.716 2023.89 547.416M2048.2 469.523L2049.4 470.958L2048.19 469.53M2048.2 469.523L2048.19 469.53M2048.2 469.523C2057.76 461.529 2069.53 457.57 2083.38 457.57M2048.2 469.523L2050.6 472.396C2059.4 465.035 2070.29 461.314 2083.38 461.314M2116.79 470.958L2118.01 469.54M2118.01 469.54C2108.69 461.531 2097.1 457.57 2083.38 457.57M2118.01 469.54L2115.57 472.378M2118.01 469.54C2127.24 477.47 2134.14 488.219 2138.76 501.689L2135.22 502.905M2135.22 502.905L2136.99 502.298L2135.23 502.92M2135.22 502.905L2135.23 502.92M2135.22 502.905C2130.78 489.946 2124.21 479.801 2115.57 472.378M2135.23 502.92L2138.76 501.674C2143.5 515.124 2145.85 530.382 2145.85 547.416M2135.23 502.92C2139.8 515.898 2142.1 530.721 2142.1 547.416M2135.23 591.914L2136.99 592.536L2135.22 591.929M2135.23 591.914L2135.22 591.929M2135.23 591.914C2139.8 578.936 2142.1 564.11 2142.1 547.416M2135.23 591.914L2138.76 593.157C2143.5 579.707 2145.85 564.45 2145.85 547.416M2331.42 680.227L2332.38 678.622L2331.43 680.235M2331.42 680.227L2331.43 680.235M2331.42 680.227C2309.84 667.331 2293.24 649.446 2281.63 626.609M2331.42 680.227L2333.34 677.015C2312.38 664.488 2296.26 647.135 2284.97 624.914L2281.63 626.609M2331.43 680.235L2333.33 677.007C2354.39 689.394 2379.59 695.627 2409.03 695.627M2331.43 680.235C2353.17 693.021 2379.06 699.37 2409.03 699.37M2518.83 643.062L2520.4 644.075L2518.83 643.066M2518.83 643.062V643.066M2518.83 643.062C2529.46 626.497 2535.43 607.309 2536.68 585.445L2540.4 585.657M2518.83 643.062L2521.98 645.086C2533.01 627.919 2539.12 608.095 2540.4 585.657M2518.83 643.066C2508.32 659.502 2493.81 672.368 2475.21 681.667M2518.83 643.066L2521.98 645.081C2511.09 662.122 2496.04 675.435 2476.88 685.014M2540.4 585.657L2538.52 585.55V583.678M2540.4 585.657L2540.52 583.678H2538.52M2538.52 583.678V587.422H2462.64V583.678M2538.52 583.678H2462.64M2462.64 583.678V585.55L2460.79 585.275M2462.64 583.678H2461.03L2460.79 585.275M2460.79 585.275L2464.49 585.824C2462.95 596.247 2459.66 605.269 2454.57 612.837L2451.46 610.748M2460.79 585.275C2459.31 595.241 2456.19 603.715 2451.46 610.748M2451.46 610.748L2453.01 611.791L2451.46 610.753M2451.46 610.748L2451.46 610.753M2451.46 610.753L2454.57 612.829C2449.62 620.262 2443.27 625.957 2435.55 629.883L2433.85 626.547M2451.46 610.753C2446.85 617.669 2440.98 622.923 2433.85 626.547M2433.85 626.547L2434.7 628.216L2433.84 626.554M2433.85 626.547L2433.84 626.554M2433.84 626.554L2435.56 629.878C2427.97 633.807 2419.42 635.751 2409.97 635.751M2433.84 626.554C2426.84 630.175 2418.9 632.007 2409.97 632.007M2377.31 623.686L2376.21 625.196M2376.21 625.196C2385.87 632.247 2397.15 635.751 2409.97 635.751M2376.21 625.196L2378.42 622.174M2376.21 625.196C2366.56 618.153 2359.13 607.96 2353.86 594.739M2353.86 594.724L2355.6 594.046L2353.86 594.739M2353.86 594.724L2353.86 594.739M2353.86 594.724C2348.72 581.487 2346.18 565.511 2346.18 546.849M2353.86 594.724L2357.35 593.369C2352.42 580.68 2349.92 565.191 2349.92 546.849M2353.86 594.739L2357.34 593.354C2362.4 606.058 2369.44 615.625 2378.42 622.174M2355.79 500.219L2354.05 499.523M2354.05 499.523C2348.78 512.641 2346.18 528.435 2346.18 546.849M2354.05 499.523L2357.53 500.918M2354.05 499.523C2359.32 486.43 2366.68 476.361 2376.21 469.443L2378.41 472.473M2378.41 472.473L2377.31 470.958L2378.42 472.47M2378.41 472.473L2378.42 472.47M2378.41 472.473C2369.57 478.897 2362.58 488.337 2357.53 500.918M2378.42 472.47L2376.21 469.448C2385.87 462.397 2397.15 458.893 2409.97 458.893M2378.42 472.47C2387.38 465.929 2397.88 462.637 2409.97 462.637M2444.34 475.5L2445.65 474.168L2444.36 475.52M2444.34 475.5L2444.36 475.52M2444.34 475.5C2435.68 466.965 2424.29 462.637 2409.97 462.637M2444.34 475.5L2446.97 472.835C2437.5 463.5 2425.11 458.893 2409.97 458.893M2444.36 475.52L2446.95 472.817C2456.48 481.957 2462.3 494 2464.49 508.82L2460.79 509.367M2444.36 475.52C2453.2 483.999 2458.7 495.24 2460.79 509.367M2460.79 509.367L2462.64 509.094V510.966M2460.79 509.367L2461.03 510.966H2462.64M2462.64 510.966V507.223H2538.52V510.966M2462.64 510.966H2538.52M2538.52 510.966V509.094L2540.4 509M2538.52 510.966H2540.5L2540.4 509M2540.4 509L2536.65 509.187C2535.55 487.079 2529.54 467.908 2518.66 451.608M2540.4 509C2539.25 486.302 2533.06 466.458 2521.78 449.531M2475.1 411.869L2475.92 410.184M2475.92 410.184C2495.2 419.509 2510.5 432.624 2521.78 449.531M2475.92 410.184L2474.29 413.556M2475.92 410.184C2456.61 400.852 2434.18 396.217 2408.65 396.217M2333.71 418.767L2332.76 417.155L2333.72 418.762M2333.71 418.767L2333.72 418.762M2333.71 418.767C2312.75 431.167 2296.57 448.46 2285.15 470.681L2281.82 468.971M2333.71 418.767L2331.81 415.545C2310.22 428.314 2293.56 446.137 2281.82 468.971M2333.72 418.762C2354.65 406.253 2379.6 399.961 2408.65 399.961M2333.72 418.762L2331.8 415.548C2353.41 402.634 2379.05 396.217 2408.65 396.217M2281.82 468.971L2283.49 469.827L2281.82 468.974M2281.82 468.971V468.974M2281.82 468.974L2285.15 470.678C2273.86 492.774 2268.18 518.524 2268.18 547.982M2281.82 468.974C2270.21 491.683 2264.44 518.037 2264.44 547.982M2281.63 626.601L2283.3 625.763L2281.63 626.609M2281.63 626.601L2281.63 626.609M2281.63 626.601C2270.15 603.774 2264.44 577.551 2264.44 547.982M2281.63 626.601L2284.97 624.922C2273.79 602.694 2268.18 577.064 2268.18 547.982M2644 680.422L2644.97 678.81L2644.02 680.427M2644 680.422L2644.02 680.427M2644 680.422C2622.43 667.653 2605.76 649.895 2594.03 627.188M2644 680.422L2645.92 677.2C2624.95 664.795 2608.78 647.567 2597.35 625.468L2594.03 627.188M2644.02 680.427L2645.89 677.192C2666.96 689.457 2691.99 695.627 2721.04 695.627M2644.02 680.427C2665.74 693.083 2691.44 699.37 2721.04 699.37M2797.87 680.424L2796.94 678.81L2797.89 680.424M2797.87 680.424H2797.89M2797.87 680.424C2776.28 693.083 2750.65 699.37 2721.04 699.37M2797.87 680.424L2795.99 677.195C2775.05 689.457 2750.1 695.627 2721.04 695.627M2797.89 680.424L2795.97 677.197C2817.06 664.793 2833.31 647.562 2844.74 625.468L2848.06 627.188M2797.89 680.424C2819.58 667.656 2836.33 649.898 2848.06 627.188M2848.06 627.188L2846.39 626.327L2848.06 627.183M2848.06 627.188V627.183M2848.06 627.183L2844.74 625.473C2856.14 603.25 2861.88 577.438 2861.88 547.982M2848.06 627.183C2859.79 604.348 2865.63 577.93 2865.63 547.982M2844.74 470.304L2846.39 469.448L2844.74 470.309M2844.74 470.304V470.309M2844.74 470.304C2833.31 448.086 2817.06 430.86 2795.99 418.585M2844.74 470.304L2848.06 468.592C2836.33 445.755 2819.58 427.992 2797.87 415.348L2795.99 418.585M2844.74 470.309C2856.14 492.4 2861.88 518.272 2861.88 547.982M2844.74 470.309L2848.06 468.589C2859.79 491.302 2865.63 517.785 2865.63 547.982M2795.97 418.578L2796.94 416.968L2795.99 418.585M2795.97 418.578L2795.99 418.585M2795.97 418.578C2775.05 406.193 2750.1 399.961 2721.04 399.961M2795.97 418.578L2797.89 415.355C2776.28 402.569 2750.65 396.217 2721.04 396.217M2645.89 418.583L2644.97 416.968L2645.92 418.58M2645.89 418.583L2645.92 418.58M2645.89 418.583C2624.95 430.857 2608.78 448.084 2597.35 470.304M2645.89 418.583L2644.02 415.351C2622.43 427.997 2605.76 445.757 2594.03 468.592L2597.35 470.304M2645.92 418.58C2666.96 406.193 2691.99 399.961 2721.04 399.961M2645.92 418.58L2644.02 415.353C2665.74 402.569 2691.44 396.217 2721.04 396.217M2597.35 470.309L2595.68 469.448L2597.35 470.304M2597.35 470.309V470.304M2597.35 470.309C2585.94 492.4 2580.18 518.272 2580.18 547.982M2597.35 470.309L2594.03 468.589C2582.28 491.302 2576.44 517.785 2576.44 547.982M2594.03 627.183L2595.68 626.327L2594.03 627.188M2594.03 627.183V627.188M2594.03 627.183C2582.28 604.348 2576.44 577.93 2576.44 547.982M2594.03 627.183L2597.35 625.473C2585.92 603.25 2580.18 577.438 2580.18 547.982M2756.04 625.304L2754.84 623.873L2756.06 625.294M2756.04 625.304L2756.06 625.294M2756.04 625.304C2746.73 633.18 2735.15 637.074 2721.42 637.074M2756.04 625.304L2753.62 622.443C2745.08 629.671 2734.37 633.33 2721.42 633.33M2756.06 625.294C2765.3 617.362 2772.18 606.615 2776.8 593.142L2773.26 591.929M2756.06 625.294L2753.62 622.453C2762.25 615.031 2768.82 604.888 2773.26 591.929M2686.23 625.301L2687.43 623.873L2686.25 625.321M2686.23 625.301L2686.25 625.321M2686.23 625.301C2676.87 617.374 2669.83 606.63 2665.09 593.157M2686.23 625.301L2688.65 622.446C2679.89 615.018 2673.2 604.873 2668.63 591.914L2665.09 593.157M2686.25 625.321C2695.81 633.183 2707.57 637.074 2721.42 637.074M2686.25 625.321L2688.62 622.428C2697.43 629.666 2708.32 633.33 2721.42 633.33M2665.09 593.142L2666.86 592.536L2665.09 593.157M2665.09 593.142V593.157M2665.09 593.142C2660.47 579.697 2658.2 564.447 2658.2 547.416M2665.09 593.142L2668.63 591.929C2664.19 578.946 2661.94 564.115 2661.94 547.416M2665.09 501.674L2666.86 502.298L2665.09 501.689M2665.09 501.674V501.689M2665.09 501.674C2669.83 488.204 2676.87 477.457 2686.23 469.53M2665.09 501.674L2668.63 502.92C2673.2 489.961 2679.89 479.813 2688.65 472.388L2686.23 469.53M2665.09 501.689C2660.47 515.137 2658.2 530.387 2658.2 547.416M2665.09 501.689L2668.63 502.905C2664.19 515.888 2661.94 530.716 2661.94 547.416M2686.23 469.523L2687.43 470.958L2686.23 469.53M2686.23 469.523V469.53M2686.23 469.523C2695.81 461.529 2707.57 457.57 2721.42 457.57M2686.23 469.523L2688.65 472.396C2697.43 465.035 2708.34 461.314 2721.42 461.314M2754.84 470.958L2753.62 472.378M2753.62 472.378C2745.05 465.033 2734.37 461.314 2721.42 461.314M2753.62 472.378L2756.06 469.54C2746.73 461.531 2735.15 457.57 2721.42 457.57M2753.62 472.378L2756.06 469.538C2765.3 477.47 2772.18 488.219 2776.8 501.689L2773.26 502.905M2753.62 472.378C2762.25 479.801 2768.82 489.946 2773.26 502.905M2773.26 502.905L2775.03 502.298L2773.26 502.92M2773.26 502.905V502.92M2773.26 502.92L2776.8 501.674C2781.54 515.124 2783.89 530.382 2783.89 547.416M2773.26 502.92C2777.85 515.898 2780.15 530.721 2780.15 547.416M2773.26 591.914L2775.03 592.536L2773.26 591.929M2773.26 591.914V591.929M2773.26 591.914C2777.85 578.936 2780.15 564.11 2780.15 547.416M2773.26 591.914L2776.8 593.157C2781.54 579.707 2783.89 564.45 2783.89 547.416M2998.36 305.206H2996.49V303.334M2998.36 305.206V303.334H2996.49M2998.36 305.206V691.835M2998.36 305.206H2994.61V691.835H2998.36M2996.49 303.334V307.078H2916.04V303.334M2996.49 303.334H2916.04M2996.49 693.707V691.835H2998.36M2996.49 693.707H2998.36V691.835M2996.49 693.707H2916.04M2996.49 693.707V689.963H2916.04V693.707M2916.04 303.334V305.206H2914.17M2916.04 303.334H2914.17V305.206M2914.17 305.206H2917.92V691.835H2914.17M2914.17 305.206V691.835M2914.17 691.835H2916.04V693.707M2914.17 691.835V693.707H2916.04M0.627565 317.725H2.49945V319.597M0.627565 317.725V319.597H2.49945M0.627565 317.725V265.495M0.627565 317.725H4.37133V265.495H0.627565M2.49945 319.597V315.854H157.074M2.49945 319.597H157.074V315.854M2.49945 263.623V265.495H0.627565M2.49945 263.623H0.627565V265.495M2.49945 263.623H188.458V267.367M2.49945 263.623V267.367H188.458M158.679 318.689L157.074 317.725V315.854M158.679 318.689L160.383 315.854H157.074M158.679 318.689L4.24733 575.706L1.03831 573.779M158.679 318.689L155.47 316.76L1.03831 573.779M1.03831 573.779L2.64283 574.743L1.67873 576.348M1.03831 573.779L0.0742188 575.384L1.67873 576.348M1.67873 576.348L3.60693 573.138L48.3773 600.038L46.4492 603.248M1.67873 576.348L46.4492 603.248M46.4492 603.248L47.4134 601.643L49.0177 602.609M46.4492 603.248L48.0535 604.211L49.0177 602.609M49.0177 602.609L45.8088 600.68L247.88 264.377L251.09 266.304M49.0177 602.609L251.09 266.304M251.09 266.304L249.485 265.34V263.468M251.09 266.304L252.792 263.468H249.485M249.485 263.468V267.212H188.55V263.468M249.485 263.468H188.55M188.55 263.468V265.34L186.946 264.377M188.55 263.468H187.491L186.946 264.377M186.946 264.377L190.155 266.304L190.063 266.458M186.946 264.377L186.854 264.529L190.063 266.458M188.458 267.367V265.495L190.063 266.458M188.458 267.367H189.517L190.063 266.458M667.257 319.597V317.725H669.129M667.257 319.597H669.129V317.725M667.257 319.597H512.677V315.854M667.257 319.597V315.854H512.677M669.129 317.725V265.495M669.129 317.725H665.385V265.495H669.129M669.129 265.495H667.257V263.623M669.129 265.495V263.623H667.257M667.257 263.623H481.289V267.367M667.257 263.623V267.367H481.289M512.677 315.854V317.725L511.072 318.689M512.677 315.854H509.367L511.072 318.689M511.072 318.689L665.527 575.706L668.734 573.777M511.072 318.689L514.282 316.76L668.734 573.777M668.095 576.345L667.13 574.74L668.734 573.777M668.095 576.345L669.7 575.382L668.734 573.777M668.095 576.345L623.317 603.248M668.095 576.345L666.166 573.135L621.388 600.038L623.317 603.248M620.749 602.606L622.354 601.643L623.317 603.248M620.749 602.606L621.713 604.211L623.317 603.248M620.749 602.606L418.649 266.304M620.749 602.606L623.959 600.677L421.858 264.377L418.649 266.304M420.253 263.468V265.34L418.649 266.304M420.253 263.468H416.944L418.649 266.304M420.253 263.468H481.197M420.253 263.468V267.212H481.197V263.468M482.802 264.377L481.197 265.34V263.468M482.802 264.377L482.255 263.468H481.197M482.802 264.377L482.894 264.529L479.684 266.458M482.802 264.377L479.592 266.304L479.684 266.458M479.684 266.458L481.289 265.495V267.367M479.684 266.458L480.231 267.367H481.289M1026.19 564.612V568.356M1151.85 505.104C1163.11 485.154 1168.7 462.175 1168.7 436.223M1164.96 436.223H1168.7M1028.27 307.078V303.334M1012.97 499.104V502.847M1080.76 436.223H1084.51M1012.6 373.907V370.163M1296.97 527.783H1300.71M1360.38 465.689V469.433M1360.38 465.689C1366.02 465.689 1372.2 466.136 1378.94 467.027M1381.89 400.328C1377.29 399.829 1373.02 399.582 1369.07 399.582M1369.07 399.582V395.838M1553.46 695.627V699.37M1694.31 547.982H1698.05M1553.46 399.961V396.217M1412.61 547.982H1408.87M1553.84 637.074V633.33M1490.61 547.416H1494.36M1553.84 457.57V461.314M1553.84 461.314C1566.8 461.314 1577.48 465.033 1586.03 472.378M1616.31 547.416H1612.57M1781.2 659.482L1778.05 661.513M1875.34 632.918V629.175M1846.28 602.731C1846.28 610.309 1847.43 616.453 1849.91 620.993L1853.19 619.201C1851.14 615.437 1850.02 610.004 1850.02 602.731M1846.28 602.731H1850.02M2083 695.627V699.37M2223.85 547.982H2227.59M2083 399.961V396.217M1942.15 547.982H1938.41M2083.38 637.074V633.33M2020.15 547.416H2023.89M2083.38 457.57V461.314M2083.38 461.314C2096.33 461.314 2107.02 465.033 2115.57 472.378M2145.85 547.416H2142.1M2409.03 695.627V699.37M2409.03 695.627C2434.6 695.627 2456.64 690.949 2475.21 681.667M2409.03 699.37C2435.06 699.37 2457.69 694.611 2476.88 685.014M2475.21 681.667L2476.88 685.014M2409.97 635.751V632.007M2409.97 632.007C2397.88 632.007 2387.38 628.715 2378.42 622.174M2346.18 546.849H2349.92M2349.92 546.849C2349.92 528.767 2352.48 513.475 2357.53 500.918M2409.97 458.893V462.637M2518.66 451.608L2521.78 449.531M2518.66 451.608C2507.77 435.29 2493.01 422.606 2474.29 413.556M2474.29 413.556C2455.58 404.511 2433.72 399.961 2408.65 399.961M2408.65 399.961V396.217M2268.18 547.982H2264.44M2721.04 695.627V699.37M2861.88 547.982H2865.63M2721.04 399.961V396.217M2580.18 547.982H2576.44M2721.42 637.074V633.33M2658.2 547.416H2661.94M2721.42 457.57V461.314M2783.89 547.416H2780.15" stroke="white" stroke-width="4.5"/>
</g>
<defs>
<clipPath id="clip0_1294_917">
<rect width="3000" height="728.786" fill="white"/>
</clipPath>
</defs>
</svg>
