<svg width="1738" height="2057" viewBox="0 0 1738 2057" fill="none" xmlns="http://www.w3.org/2000/svg">
<path d="M164.5 1527.72C158.31 1525.62 152.576 1523.22 147.5 1520.5C128.081 1510.1 146.027 1441.86 173 1368.09V883.5L1316.5 957.5V1424L1050 1776C1054.83 1787.83 1031.5 1820.5 899.5 1856.5C734.5 1901.5 747 1996 611.5 2043C503.1 2080.6 274 1930.67 173 1851C193.4 1725.8 175.833 1583.31 164.5 1527.72Z" fill="#E4E0B7"/>
<path d="M235.5 1218C217.211 1257.39 192.698 1314.21 173 1368.09M294.5 1534C278.676 1542.35 209.523 1542.97 164.5 1527.72M164.5 1527.72C158.31 1525.62 152.576 1523.22 147.5 1520.5C128.081 1510.1 146.027 1441.86 173 1368.09M164.5 1527.72C175.833 1583.31 193.4 1725.8 173 1851C274 1930.67 503.1 2080.6 611.5 2043C747 1996 734.5 1901.5 899.5 1856.5C1031.5 1820.5 1054.83 1787.83 1050 1776L1316.5 1424V957.5L173 883.5V1368.09" stroke="black" stroke-width="16"/>
<path d="M782.5 1298.5C809.5 1251.5 951.1 1212.4 945.5 1338C944.954 1372.24 934.447 1430.16 899.5 1435.79M812 1463.5C808.5 1441.83 815.7 1405 872.5 1431C882.806 1435.72 891.753 1437.04 899.5 1435.79M899.5 1435.79C890.667 1452.69 876.7 1490.5 891.5 1506.5C910 1526.5 828 1593.5 801.5 1561C775 1528.5 781 1506.5 753.5 1506.5M840 1338C867.333 1325.33 915.9 1317.2 891.5 1386C881 1412.5 844.5 1400.5 847.5 1386" stroke="black" stroke-width="16"/>
<path d="M98.5 1669.5C149.833 1666 271.9 1668.8 349.5 1708" stroke="black" stroke-width="16"/>
<path d="M436 1037.5C322 1041.9 295.5 1166.67 296.5 1228.5C300.333 1284.5 335.3 1396.3 444.5 1395.5C581 1394.5 634 1283.33 634 1228.5C634 1117 578.5 1032 436 1037.5Z" fill="#D9D9D9"/>
<path d="M634 1228.5C634 1117 578.5 1032 436 1037.5C322 1041.9 295.5 1166.67 296.5 1228.5C300.333 1284.5 335.3 1396.3 444.5 1395.5C581 1394.5 634 1283.33 634 1228.5ZM634 1228.5H909C935.333 1235.67 982.8 1261.9 962 1309.5" stroke="black" stroke-width="16"/>
<path d="M296.5 1225L278.5 1234.5C266.333 1192.17 237.6 1132.9 220 1234.5L199.5 1225" stroke="black" stroke-width="16"/>
<path d="M1494 1847L1479 1799L1565 1647.5L1645 1696C1642.83 1742.67 1641.6 1843.2 1654 1872C1666.4 1900.8 1642.5 1922.67 1629 1930L1494 1847Z" fill="#2555FF" stroke="black" stroke-width="16"/>
<path d="M1466.5 1897L1494 1847L1623.5 1925.5L1595.5 1968L1466.5 1897Z" fill="#D9D9D9" stroke="black" stroke-width="16"/>
<path d="M1612 1759L1647 1699L1600.5 1672.34C1611 1671.23 1638.2 1671.2 1663 1680C1754 1717.5 1714.5 1805 1709 1814C1703.5 1823 1630 1933 1568 1854C1518.4 1790.8 1576.67 1764.33 1612 1759Z" fill="#464646"/>
<path d="M1572 1656L1600.5 1672.34M1600.5 1672.34L1647 1699L1612 1759C1576.67 1764.33 1518.4 1790.8 1568 1854C1630 1933 1703.5 1823 1709 1814C1714.5 1805 1754 1717.5 1663 1680C1638.2 1671.2 1611 1671.23 1600.5 1672.34Z" stroke="black" stroke-width="16"/>
<path d="M1214.5 1760L1163 1731L1228 1517C1281.83 1475.5 1383.1 1417.4 1357.5 1517L1395.5 1494L1543 1568.5L1571.5 1635.5C1562.7 1717.1 1509.17 1778.83 1483.5 1799.5L1403 1809L1239.6 1731C1230.12 1742.68 1221.53 1752.5 1214.5 1760Z" fill="#252525"/>
<path d="M1357.5 1517C1383.1 1417.4 1281.83 1475.5 1228 1517L1163 1731L1214.5 1760C1221.53 1752.5 1230.12 1742.68 1239.6 1731M1357.5 1517C1336.76 1597.69 1280.06 1681.19 1239.6 1731M1357.5 1517L1395.5 1494L1543 1568.5L1571.5 1635.5C1562.7 1717.1 1509.17 1778.83 1483.5 1799.5L1403 1809L1239.6 1731" stroke="black" stroke-width="16"/>
<path d="M1219 1048L1212.5 1176L1271 1361L1302 1342.5L1298.5 1077L1273.5 1031L1219 1048Z" fill="#6E8EFF" stroke="black" stroke-width="16"/>
<path d="M1380.5 1638C1409.7 1588.8 1411.67 1542.17 1409 1525L1516.5 1580.5C1533.3 1624.9 1504.83 1673.67 1488.5 1692.5L1380.5 1638Z" fill="#D9D9D9" stroke="black" stroke-width="16"/>
<path d="M1729.5 1407.5H1301V1381.62V1355.75V1329.88V1304V1278.12V1252.25V1226.38V1200.5V1175V1149.5V1124V1098.5V1071.5L1459 1059L1477.68 1071.5L1518.04 1098.5L1556.16 1124L1594.27 1149.5L1632.39 1175L1670.5 1200.5H1729.5V1226.38V1252.25V1278.12V1304V1329.88V1355.75V1381.62V1407.5Z" fill="#AA995D"/>
<path d="M1301 1071.5L1459 1059L1477.68 1071.5M1301 1071.5V1098.5M1301 1071.5H1477.68M1670.5 1200.5H1729.5V1226.38M1670.5 1200.5H1301M1670.5 1200.5L1632.39 1175M1301 1098.5H1518.04M1301 1098.5V1124M1518.04 1098.5L1556.16 1124M1518.04 1098.5L1477.68 1071.5M1594.27 1149.5H1301M1594.27 1149.5L1632.39 1175M1594.27 1149.5L1556.16 1124M1301 1149.5V1175M1301 1149.5V1124M1301 1200.5V1226.38M1301 1200.5V1175M1729.5 1304H1301M1729.5 1304V1329.88M1729.5 1304V1278.12M1301 1304V1329.88M1301 1304V1278.12M1729.5 1252.25H1301M1729.5 1252.25V1278.12M1729.5 1252.25V1226.38M1301 1252.25V1278.12M1301 1252.25V1226.38M1729.5 1355.75H1301M1729.5 1355.75V1381.62M1729.5 1355.75V1329.88M1301 1355.75V1381.62M1301 1355.75V1329.88M1301 1381.62V1407.5H1729.5V1381.62M1301 1381.62H1729.5M1729.5 1329.88H1301M1301 1278.12H1729.5M1729.5 1226.38H1301M1301 1175H1632.39M1556.16 1124H1301" stroke="black" stroke-width="16"/>
<path d="M1539 949C1596.5 969.833 1694.8 1042.9 1628 1168.5L1597.5 1148.87L1568.5 1130.21L1533 1107.36L1504.75 1089.18L1476.5 1071C1492.5 1061 1517 1033.9 1487 1005.5C1481.83 1000.6 1479.1 995.927 1478.28 991.5C1477.38 986.688 1478.74 982.173 1481.66 978C1485.31 972.79 1491.4 968.113 1498.59 964.058C1474.91 943.878 1464.67 930.774 1513.66 956.951C1522.41 953.465 1531.42 950.778 1539 949Z" fill="#D9D9D9"/>
<path d="M1597.5 1148.87L1628 1168.5C1694.8 1042.9 1596.5 969.833 1539 949C1519.9 953.482 1491.64 963.743 1481.66 978M1597.5 1148.87C1622.17 1114.75 1645 1031.4 1539 971C1433 910.6 1490.83 959.5 1533 991.5C1562.83 1012.31 1611.7 1069.17 1568.5 1130.21M1597.5 1148.87L1568.5 1130.21M1568.5 1130.21L1533 1107.36M1533 1107.36C1551.11 1091.41 1566.19 1043.2 1481.66 978M1533 1107.36L1504.75 1089.18M1481.66 978C1478.74 982.173 1477.38 986.688 1478.28 991.5M1504.75 1089.18L1476.5 1071C1492.5 1061 1517 1033.9 1487 1005.5C1481.83 1000.6 1479.1 995.927 1478.28 991.5M1504.75 1089.18C1523.52 1070.79 1544.5 1025.5 1478.28 991.5" stroke="black" stroke-width="16"/>
<path d="M1535 900H1440V1000.5H1535V900Z" fill="#525252" stroke="black" stroke-width="16"/>
<path d="M1438 775H1406.5V779.5V964H1438V775Z" fill="#7E7E7E" stroke="black" stroke-width="16"/>
<path d="M251.5 723.001C201 651.5 119 715.499 139.5 772.001L228 941.5L319.5 907L251.5 723.001Z" fill="#FC8282" stroke="black" stroke-width="16"/>
<path d="M1439.5 335.5H1469.5V403.5C1508.5 406.167 1587.3 429.9 1590.5 503.5C1593.7 577.1 1546.5 613.5 1502.5 613.5H1394.5L1410 583C1440.83 582.833 1502.5 582.6 1502.5 583C1502.5 583.5 1567.5 569.5 1557 503.5C1548.6 450.7 1495.17 433.833 1469.5 432V515H1439.5V335.5Z" fill="#959191"/>
<path d="M1469.5 403.5V335.5H1439.5V515H1469.5V432M1469.5 403.5C1508.5 406.167 1587.3 429.9 1590.5 503.5C1593.7 577.1 1546.5 613.5 1502.5 613.5H1394.5L1410 583C1440.83 582.833 1502.5 582.6 1502.5 583C1502.5 583.5 1567.5 569.5 1557 503.5C1548.6 450.7 1495.17 433.833 1469.5 432M1469.5 403.5V432" stroke="black" stroke-width="16"/>
<path d="M1389.8 261H1323.03L1315 606H1391.81L1433.98 557.146L1437 304.5L1389.8 261Z" fill="#28342F" stroke="black" stroke-width="16"/>
<path d="M1322 261H1116.5L1075.5 316.5V538.5L1116.5 573.5H1352L1373.5 550V316.5L1322 261Z" fill="#4D5E58" stroke="black" stroke-width="16"/>
<path d="M1128 490V328.5H1303V490H1128Z" fill="#D9D9D9" stroke="black" stroke-width="16"/>
<path d="M1326 557H1143V889L1161 977.5L1405.5 947V622L1326 557Z" fill="#2C2C2C" stroke="black" stroke-width="16"/>
<path d="M1371.5 660V594.5L1405.5 624V680.5V744.5V808.5L1231 998.5H1190.5H1150V956.5V923.5L1195.5 837.5L1371.5 660Z" fill="#2555FF"/>
<path d="M1405.5 680.5V624L1371.5 594.5V660L1195.5 837.5L1150 923.5V956.5M1405.5 680.5L1150 956.5M1405.5 680.5V744.5M1150 956.5V998.5H1190.5M1405.5 744.5V808.5L1231 998.5H1190.5M1405.5 744.5L1190.5 998.5" stroke="black" stroke-width="16"/>
<path d="M1143 557H940.182C874.527 557 833.371 708.566 821 784.349L913.523 848.948L1143 883V557Z" fill="#525252" stroke="black" stroke-width="16"/>
<path d="M1029.5 756V790.25V824.5H990.375H951.25H919.875H857.5L873 790.25L888.5 756H919.875H951.25H990.375H1029.5Z" fill="#474747"/>
<path d="M1029.5 790.25V756H990.375M1029.5 790.25V824.5H990.375M1029.5 790.25H990.375M873 790.25L857.5 824.5H919.875M873 790.25L888.5 756H919.875M873 790.25H919.875M951.25 790.25V756M951.25 790.25V824.5M951.25 790.25H990.375M951.25 790.25H919.875M951.25 756H990.375M951.25 756H919.875M951.25 824.5H990.375M951.25 824.5H919.875M990.375 824.5V790.25M990.375 790.25V756M919.875 756V790.25M919.875 790.25V824.5" stroke="black" stroke-width="16"/>
<path d="M1031 756H1079V871L1031 834.16V756Z" fill="#232323" stroke="black" stroke-width="16"/>
<path d="M924 585H1112.5V710H896C875.972 697.152 853.087 666.139 880.231 626.201L879 614H889.892C898.304 604.699 909.476 594.998 924 585Z" fill="#3FB68B"/>
<path d="M1112.5 585H924C838 644.2 869.5 693 896 710H1112.5M1112.5 585V710M1112.5 585L1006 614M1112.5 710L1006 668.5M1006 614V668.5M1006 614H879L884.5 668.5H1006" stroke="black" stroke-width="16"/>
<path d="M587.5 156C589.5 96.7998 547.333 77.3331 526 74.9998C552 51.4998 626.7 5.2998 717.5 8.4998C808.3 11.6998 882.333 64.4998 908 90.4998C864.8 90.4998 861.667 138.5 865.5 162.5C772 185 585.5 215.2 587.5 156Z" fill="#696666" stroke="black" stroke-width="16"/>
<path d="M489.5 211.5V322.5C571.667 429.333 738.3 624.3 747.5 549.5C756.7 474.7 910 518.333 985.5 549.5V211.5L908.5 144C776.5 208 616.167 170.667 552.5 144L489.5 211.5Z" fill="#793FF5" stroke="black" stroke-width="16"/>
<path d="M448.5 267.5V331.5L524 310V274.5L448.5 267.5Z" fill="#D9D9D9"/>
<path d="M461 251.5V216H524V257.5L461 251.5Z" fill="#D9D9D9"/>
<path d="M448.5 267.5V331.5L524 310V274.5L448.5 267.5Z" stroke="black" stroke-width="16"/>
<path d="M461 251.5V216H524V257.5L461 251.5Z" stroke="black" stroke-width="16"/>
<path d="M867.5 404.501C819.9 399.701 819.667 428.834 825.5 444.001C859 457.501 929.6 489.6 944 510C962 535.5 995.5 492.5 968.5 481C946.9 471.8 954.5 450.167 961 440.5L989 383.5L993.5 272.001C990.167 242.001 972.4 203.901 928 291.501C872.5 401.001 927 410.501 867.5 404.501Z" fill="#505050" stroke="black" stroke-width="16"/>
<path d="M837.5 366C828.7 386 833.834 400.333 837.5 405L825.5 417C797.5 399.4 807.833 370.333 816.5 358L956.5 49.5L1150.5 182.5C1110 264.333 1033.3 441.4 1022.5 459C1011.7 476.6 995.333 474.333 988.5 471C965 458.333 915.6 431.1 906 423.5C896.4 415.9 902 397 906 388.5L948.5 290.5L883 267.5C871.5 292 846.3 346 837.5 366Z" fill="#2555FF" stroke="black" stroke-width="16"/>
<path d="M803 450L748.5 542L808 669.5L870 683L948 529L940 491L844 434L803 450Z" fill="#1EEEA3" stroke="black" stroke-width="16"/>
<path d="M1223.42 1048.44C1247.29 1073.96 1266.05 1106.48 1231.5 1118C1174.5 1137 1168 1120 1168 1103.5C1168 1087 982 964.999 1168 902.499C1172.34 872.659 1210.87 835.885 1252.5 841.8C1279.33 816.033 1343.4 793.1 1385 907.5C1415.36 991 1464 970.167 1477.5 930C1490.17 983.667 1495.2 1086.9 1414 1070.5C1312.5 1050 1298 1111.5 1281 1036.5C1273.07 1053.65 1249.82 1065.1 1223.42 1048.44Z" fill="#E8233B"/>
<path d="M1231.5 930C1206 904.5 1209 945.5 1220.5 971.5C1227.04 986.281 1266.02 1020.51 1278 1006.56M1278 1006.56C1285.24 998.123 1351.12 971.083 1325.5 912.5C1304.8 865.168 1278.07 845.433 1252.5 841.8M1278 1006.56C1285.09 1015.74 1285.4 1026.99 1281 1036.5M1252.5 841.8C1210.87 835.885 1172.34 872.659 1168 902.499C982 964.999 1168 1087 1168 1103.5C1168 1120 1174.5 1137 1231.5 1118C1277.1 1102.8 1229.83 1051 1200.5 1027C1235.42 1071.14 1270.82 1058.5 1281 1036.5M1252.5 841.8C1279.33 816.033 1343.4 793.1 1385 907.5C1415.36 991 1464 970.167 1477.5 930C1490.17 983.667 1495.2 1086.9 1414 1070.5C1312.5 1050 1298 1111.5 1281 1036.5" stroke="black" stroke-width="16"/>
<path d="M273.861 498.922C260.194 476.422 241.961 421.822 278.361 383.422C293.952 366.974 317.998 355.81 344.361 350.876C353.178 349.225 362.255 348.272 371.361 348.05C380.237 347.834 389.141 348.314 397.861 349.522C431.509 354.183 462.413 369.69 478.361 397.922C507.961 450.322 601.028 633.755 643.861 718.922L505.861 725.422C482.632 626.259 423.957 432.336 368.997 419.565C370.099 433.574 374.664 450.369 382.861 469.422L361.616 475.172L340.37 480.922L316.361 487.42L292.861 493.78L273.861 498.922Z" fill="#BDE5A4"/>
<path d="M478.361 397.922C507.961 450.322 601.028 633.755 643.861 718.922L505.861 725.422C481.694 622.255 419.161 416.522 362.361 418.922M478.361 397.922C462.413 369.69 431.509 354.183 397.861 349.522M478.361 397.922C449.569 381.491 426.094 373.649 408.361 373.068C367.277 371.723 357.016 409.35 382.861 469.422L361.616 475.172L340.37 480.922M292.861 493.78L273.861 498.922C260.194 476.422 241.961 421.822 278.361 383.422C293.952 366.974 317.998 355.81 344.361 350.876M292.861 493.78C273.694 459.963 257.161 384.039 344.361 350.876M292.861 493.78L316.361 487.42M344.361 350.876C353.178 349.225 362.255 348.272 371.361 348.05M316.361 487.42C298.028 453.673 283.361 378.553 371.361 348.05M316.361 487.42L340.37 480.922M371.361 348.05C380.237 347.834 389.141 348.314 397.861 349.522M340.37 480.922C322.867 444.489 309.861 367.202 397.861 349.522" stroke="black" stroke-width="16"/>
<path d="M442.5 457C428.833 434.5 410.6 379.9 447 341.5C462.591 325.052 486.636 313.888 513 308.954C521.817 307.303 530.894 306.35 540 306.128C548.876 305.912 557.78 306.392 566.5 307.6C600.148 312.262 631.052 327.768 647 356C676.6 408.4 769.667 591.833 812.5 677L674.5 683.5C651.271 584.337 592.596 390.414 537.636 377.643C538.738 391.653 543.303 408.447 551.5 427.5L530.254 433.25L509.009 439L485 445.498L461.5 451.858L442.5 457Z" fill="#BDE5A4"/>
<path d="M647 356C676.6 408.4 769.667 591.833 812.5 677L674.5 683.5C650.333 580.333 587.8 374.6 531 377M647 356C631.052 327.768 600.148 312.262 566.5 307.6M647 356C618.208 339.569 594.733 331.727 577 331.146C535.916 329.801 525.655 367.428 551.5 427.5L530.254 433.25L509.009 439M461.5 451.858L442.5 457C428.833 434.5 410.6 379.9 447 341.5C462.591 325.052 486.636 313.888 513 308.954M461.5 451.858C442.333 418.041 425.8 342.117 513 308.954M461.5 451.858L485 445.498M513 308.954C521.817 307.303 530.894 306.35 540 306.128M485 445.498C466.667 411.751 452 336.631 540 306.128M485 445.498L509.009 439M540 306.128C548.876 305.912 557.78 306.392 566.5 307.6M509.009 439C491.506 402.567 478.5 325.28 566.5 307.6" stroke="black" stroke-width="16"/>
<path d="M441 458L408 467.5L441 525L474 515L441 458Z" fill="#DFA7A7" stroke="black" stroke-width="16"/>
<path d="M471 516L441.5 459L543 429.5L582.5 415L615 473.5L572.5 490L471 516Z" fill="#9595A8"/>
<path d="M543 429.5L441.5 459L471 516L572.5 490M543 429.5L572.5 490M543 429.5L582.5 415L615 473.5L572.5 490" stroke="black" stroke-width="16"/>
<path d="M293 688.5L245 585L572 492.5L654.5 458L810 769.5L726.5 808L293 688.5Z" fill="#98A895"/>
<path d="M572 492.5L245 585L293 688.5L726.5 808M572 492.5L726.5 808M572 492.5L654.5 458L810 769.5L726.5 808" stroke="black" stroke-width="16"/>
<path d="M311 629L330 670.5L373 774L622.5 689.5C614.667 674 597.1 640.2 589.5 629C581.9 617.799 567 615.666 560.5 616L479.5 643C477.333 638.333 469.9 621.8 457.5 593C445.1 564.2 429.333 561.333 423 563.5C399.167 570.333 345.8 585.8 323 593C300.2 600.2 305.5 620 311 629Z" fill="#D9D9D9" stroke="black" stroke-width="16"/>
<path d="M259.5 717.5C202.3 777.9 255 853 288.5 883C381.3 1015.4 514.833 870.689 570 781.783C642.167 800.879 696.126 680.451 673 647.001C645 606.501 626.5 611.001 580 634.501C533.5 658.001 527.5 654.001 471 634.501C425.8 618.901 385.833 654.343 371.5 674.013C342.613 666.986 301.313 673.348 259.5 717.5Z" fill="#FA5A8A"/>
<path d="M401.5 780.501C417 749.001 419 724 410 700.5C406.263 690.743 392.01 679.003 371.5 674.013M371.5 674.013C342.613 666.986 301.313 673.348 259.5 717.5C202.3 777.9 255 853 288.5 883C381.3 1015.4 514.833 870.689 570 781.783M371.5 674.013C385.833 654.343 425.8 618.901 471 634.501C527.5 654.001 533.5 658.001 580 634.501C626.5 611.001 645 606.501 673 647.001C696.126 680.451 642.167 800.879 570 781.783M498.5 691.5C496 697.667 497.3 717.8 522.5 749C538.775 767.537 554.792 777.758 570 781.783" stroke="black" stroke-width="16"/>
<path d="M1151 1089.5L1169 1094L1137.5 1189L909.5 1133L883.5 1127L913.5 1025.5L940.5 1033.5L959 1039L1151 1089.5Z" fill="#82AFA1"/>
<path d="M909.5 1133L1137.5 1189L1169 1094L1151 1089.5L959 1039L940.5 1033.5M909.5 1133L940.5 1033.5M909.5 1133L883.5 1127L913.5 1025.5L940.5 1033.5" stroke="black" stroke-width="16"/>
<path d="M813.5 472.5L763 561L843.5 611.5L894 515L813.5 472.5Z" fill="#D9D9D9" stroke="black" stroke-width="16"/>
<path d="M1006.5 913.999C1031.5 827.499 948.333 824.666 915 839.499C899.333 844.166 875.9 847.799 907.5 824.999C939.1 802.199 985.333 810.499 1004.5 817.499C1010.81 820.791 1018.09 824.588 1026 828.724C1039.22 835.63 1054.22 843.478 1069.5 851.49C1083.66 858.911 1098.05 866.472 1111.5 873.554C1121.53 878.835 1131.03 883.85 1139.5 888.341C1153.99 896.02 1165.48 902.168 1171.5 905.499C1193.9 917.899 1195.83 943.333 1194 954.499L1145.5 1093L1111.5 1083.93L1076.5 1074.59L1038.5 1064.45L1004.5 1055.37L960 1043.5L1006.5 913.999Z" fill="#BAC4C1"/>
<path d="M1111.5 1083.93L1145.5 1093L1194 954.499C1195.83 943.333 1193.9 917.899 1171.5 905.499C1165.48 902.168 1153.99 896.02 1139.5 888.341M1111.5 1083.93L1160 945.5C1163.83 934.06 1165.1 906.613 1139.5 888.341M1111.5 1083.93L1076.5 1074.59M1139.5 888.341C1131.03 883.85 1121.53 878.835 1111.5 873.554M1111.5 873.554C1120.5 881.369 1136.2 903.5 1127 929.5C1117.8 955.5 1089.5 1037.06 1076.5 1074.59M1111.5 873.554C1098.05 866.472 1083.66 858.911 1069.5 851.49M1076.5 1074.59L1038.5 1064.45M1069.5 851.49C1080.5 861.327 1099.9 888.6 1089.5 919C1079.1 949.4 1051.17 1028.63 1038.5 1064.45M1069.5 851.49C1054.22 843.478 1039.22 835.63 1026 828.724M1038.5 1064.45L1004.5 1055.37M1026 828.724C1018.09 824.588 1010.81 820.791 1004.5 817.499C985.333 810.499 939.1 802.199 907.5 824.999C875.9 847.799 899.333 844.166 915 839.499C948.333 824.666 1031.5 827.499 1006.5 913.999L960 1043.5L1004.5 1055.37M1026 828.724C1040.17 840.982 1065.9 873.499 1055.5 905.499C1045.1 937.5 1017.17 1018.75 1004.5 1055.37" stroke="black" stroke-width="16"/>
<path d="M118 774.499C180 748.899 204.5 826.166 209 867.999C189 899.999 147.7 963.7 142.5 962.5C137.3 961.3 132 955.333 130 952.5C102.4 978.9 83.1667 954.203 77 938.554C72.3288 944.102 63.3694 949.085 48 952.5C1.19999 962.9 5.16665 925.833 13 906C27 908.4 47.8333 894.333 56.5 887C31 853 64.5 839 94.5 830C124.5 821 82 785 118 774.499Z" fill="#F7346E"/>
<path d="M85.5 874C119.1 901.2 94.5 928.486 70 906C78.1711 913.499 86.5526 927.208 77 938.554M77 938.554C72.3288 944.102 63.3694 949.085 48 952.5C1.19999 962.9 5.16665 925.833 13 906C27 908.4 47.8333 894.333 56.5 887C31 853 64.5 839 94.5 830C124.5 821 82 785 118 774.499C180 748.899 204.5 826.166 209 867.999C189 899.999 147.7 963.7 142.5 962.5C137.3 961.3 132 955.333 130 952.5C102.4 978.9 83.1667 954.203 77 938.554Z" stroke="black" stroke-width="16"/>
<path d="M717.5 1194.5C676 1148 681.5 1133 699.5 1123.5C713.9 1115.9 726.698 1116.33 731.296 1117.5C734.684 1093.52 750.739 1064.38 764 1045.5L845 1089C852 1077.67 865.1 1075.7 861.5 1158.5C857.9 1241.3 801.333 1223.01 773.5 1203.52C756.903 1211.94 734.087 1213.09 717.5 1194.5Z" fill="#FC8282"/>
<path d="M731.296 1117.5C734.684 1093.52 750.739 1064.38 764 1045.5L845 1089C852 1077.67 865.1 1075.7 861.5 1158.5C857.9 1241.3 801.333 1223.01 773.5 1203.52M731.296 1117.5C728.255 1139.04 735.425 1156.42 764 1158.5C809.324 1161.8 798.428 1190.87 773.5 1203.52M731.296 1117.5C726.698 1116.33 713.9 1115.9 699.5 1123.5C681.5 1133 676 1148 717.5 1194.5C734.087 1213.09 756.903 1211.94 773.5 1203.52" stroke="black" stroke-width="16"/>
<path d="M759 1022C693.8 1045.2 699.833 995.001 711 967.001C719.333 942.667 745.4 894.601 783 897.001C830 900.001 871.5 1025.5 876 1029C880.5 1032.5 850 1110.5 813.5 1105.5C784.3 1101.5 779 1075.17 780 1062.5C744 1094.9 751 1049 759 1022Z" fill="#F95569" stroke="black" stroke-width="16"/>
<path d="M576 794C591.786 747.127 635.53 674.941 687.555 747.424C670.979 721.42 650.531 676.265 671 654C699.5 623 770.5 656 788.5 675C851 643 886.5 698 901 726.5C915.5 755 876.5 761.5 878.5 786C880.5 810.5 908.5 816 914 856C949.833 871.167 1005.7 917.4 942.5 981C863.5 1060.5 825 1017 819.5 1009.5C814 1002 803 923.5 737 945.5C684.2 963.1 607.667 851.833 576 794Z" fill="#E8233B"/>
<path d="M788.5 675C770.5 656 699.5 623 671 654C648.2 678.8 676.167 732 693 755.5C638.6 669.9 592.333 745.5 576 794C607.667 851.833 684.2 963.1 737 945.5C803 923.5 814 1002 819.5 1009.5C825 1017 863.5 1060.5 942.5 981C1005.7 917.4 949.833 871.167 914 856M788.5 675C806.5 694 788 720 774.5 717.5C787 730.667 799.303 742.186 814 755.5C856.5 794 788.5 864 758.5 807C751.333 830.5 743.2 880.1 768 890.5C799 903.5 919.5 896 914 856M788.5 675C851 643 886.5 698 901 726.5C915.5 755 876.5 761.5 878.5 786C880.5 810.5 908.5 816 914 856" stroke="black" stroke-width="16"/>
<path d="M188.5 862C220.1 856 228.333 900.5 228.5 923.5C250.1 856.701 391.167 885 459 907.5C447.5 893 430.7 894.7 467.5 815.5C504.3 736.3 582.5 791.167 617 828.5C613.8 718.9 721.5 763.5 706 858.5C646.8 861.7 670.5 914.5 700 914.5C713.833 914.5 740.3 924.7 735.5 965.5C730.7 1006.3 680.167 1001.17 655.5 993.5C669.1 998.7 690.833 1012.67 700 1019C738 1047.8 715.833 1048.67 700 1045.5C714.5 1052.5 730.5 1094.5 700 1104C675.6 1111.6 654.167 1085.17 646.5 1071C625 1087 575.5 1104.3 549.5 1045.5C524.5 980 587.5 934.667 617 923.5C599.8 882.3 570.167 876.334 557.5 878.5C568.333 893.5 586.2 923.5 571 923.5C559.385 923.5 545.473 919.997 536.136 917.006C550.078 924.126 562.558 943.719 547 965.5C523 999.1 499 991.167 490 983C482.5 980.334 462.3 976.6 441.5 983C420.7 989.4 409.833 980.334 407 975C399.8 999.8 378 990.667 368 983C310 929 268.167 955.167 254.5 975C300 984.5 325 1055.5 265.5 1050.5C217.9 1046.5 217 992.167 222.5 965.5C166.1 977.1 150 942.334 149 923.5C149 905.5 156.9 868 188.5 862Z" fill="#E8235E" stroke="black" stroke-width="16"/>
<path d="M906.5 1184.5L921.5 1135L1087 1176.5L1079 1202.5L1031.5 1214L906.5 1184.5Z" fill="#BDEBDD" stroke="black" stroke-width="16"/>
<path d="M243.5 511.5L274 572L437.5 527L405.5 468.5L243.5 511.5Z" fill="#B8A2A2" stroke="black" stroke-width="16"/>
<path d="M1063 1576C1105.17 1519.5 1184.2 1371.5 1163 1231.5C1153.8 1197.1 1128.5 1198.83 1117 1204V1186L1215.5 1173.5C1242.5 1192.33 1292.3 1251.4 1275.5 1337L1436.5 1377.5C1423.17 1396.5 1402 1443.1 1424 1477.5C1395.67 1498.67 1320.7 1539.9 1247.5 1535.5L1163 1730L1046 1776C1055 1742.17 1056.3 1665.9 989.5 1631.5L1063 1576Z" fill="#2555FF"/>
<path d="M1275.5 1337C1261.5 1390 1222.7 1506.2 1179.5 1547L1063 1576M1275.5 1337C1292.3 1251.4 1242.5 1192.33 1215.5 1173.5L1117 1186V1204C1128.5 1198.83 1153.8 1197.1 1163 1231.5C1184.2 1371.5 1105.17 1519.5 1063 1576M1275.5 1337L1436.5 1377.5C1423.17 1396.5 1402 1443.1 1424 1477.5C1395.67 1498.67 1320.7 1539.9 1247.5 1535.5M1063 1576L989.5 1631.5C1056.3 1665.9 1055 1742.17 1046 1776L1163 1730L1247.5 1535.5M1247.5 1535.5C1268.67 1499.5 1309.4 1422.5 1303 1402.5" stroke="black" stroke-width="16"/>
<path d="M76.5 1210C74.5 1332.8 119.333 1374.17 142 1379.5C159.5 1384.5 195.3 1358.6 198.5 1215C201.7 1071.4 156.5 1043.5 133.5 1047.5C115.333 1050.5 78.5 1087.2 76.5 1210Z" fill="#D9D9D9" stroke="black" stroke-width="16"/>
</svg>
