<svg width="30" height="30" viewBox="0 0 30 30" fill="none" xmlns="http://www.w3.org/2000/svg">
<path d="M15.0012 14.7703C16.695 14.7703 18.5912 14.5828 19.8012 13.2003C20.8187 12.0378 21.1487 10.2403 20.8087 7.71031C20.3337 4.17906 18.1625 2.07031 15.0012 2.07031C11.84 2.07031 9.66872 4.17906 9.19372 7.71281C8.85372 10.2403 9.18372 12.0378 10.2012 13.2003C11.4112 14.5841 13.3075 14.7703 15.0012 14.7703V14.7703ZM11.0512 7.96031C11.2537 6.46031 12.035 3.94531 15.0012 3.94531C17.9675 3.94531 18.7487 6.46156 18.9512 7.96031C19.21 9.89781 19.0225 11.2441 18.3887 11.9666C17.82 12.6166 16.8062 12.8953 15.0012 12.8953C13.1962 12.8953 12.1825 12.6166 11.6137 11.9666C10.98 11.2441 10.7925 9.89656 11.0512 7.96031ZM25.3512 24.0453C24.255 19.6378 19.9987 16.5578 15.0012 16.5578C10.0037 16.5578 5.74747 19.6378 4.65122 24.0453C4.43622 24.9103 4.61622 25.7953 5.14497 26.4703C5.65497 27.1203 6.44497 27.4953 7.31122 27.4953H22.6912C23.5575 27.4953 24.3475 27.1203 24.8575 26.4703C25.3875 25.7953 25.5662 24.9116 25.35 24.0453H25.3512ZM23.3812 25.3153C23.2237 25.5153 22.9862 25.6228 22.6912 25.6228H7.31122C7.01747 25.6228 6.77872 25.5166 6.62122 25.3153C6.44997 25.0978 6.39622 24.8003 6.47122 24.4978C7.35872 20.9291 10.8675 18.4353 15.0012 18.4353C19.135 18.4353 22.6437 20.9278 23.5312 24.4978C23.6062 24.8003 23.5525 25.0978 23.3812 25.3153V25.3153Z" fill="white"/>
</svg>
