<svg width="381" height="20" viewBox="0 0 381 20" fill="none" xmlns="http://www.w3.org/2000/svg">
<path d="M22.6562 19.375L23 15.5312H18.4688L18.125 19.375H13L14.2812 5.625H14.875H19.125L19.5625 0.625H24.625L24.1875 5.625H28.75H29.0312L27.7812 19.375H22.6562ZM25.7188 4.78125L25.4375 0.75H29.0625L29.3438 4.78125H25.7188ZM14.2188 4.78125L15.1875 0.75H18.8125L17.8438 4.78125H14.2188ZM0.5625 13.375L1.53125 2.375H2.65625H4.65625H5.25L5.40625 0.625H9.90625L9.75 2.375H10.4062H11.875H13.5312L12.5625 13.375H11.1875H9.4375H8.8125L8.53125 16.5L9.53125 16.4062L9.46875 14.25H12.3438L12.5 19.375H9.625L9.59375 18.2188L0 19.375L0.15625 17.5L4 17.0312L4.3125 13.375H3.6875H2.1875H0.5625ZM23.5625 9.53125L23.75 7.5H19.2188L19.0312 9.53125H23.5625ZM18.875 11.4062L18.6562 13.6562H23.1875L23.375 11.4062H18.875ZM3.84375 11.5H4.46875L5.09375 4.25H4.5L3.84375 11.5ZM10.25 4.25H9.59375L8.96875 11.5H9.59375L10.25 4.25ZM33.7188 3.375L33.875 1.5H44.125L44.1875 0.625H51.1875L51.125 1.5H61.5L61.3438 3.375H50.9688L50.875 4.4375H60.8438L60.6875 6.3125H34.0625L34.2188 4.4375H43.875L43.9688 3.375H33.7188ZM33.0625 10.125L33.3125 7.125H38.9375H55.3125H60.9375L60.6875 10.125H55.0625L55.1562 9H52.9375L52.7812 10.75H54.1562H58.9062H59.4062L58.9375 16.125H58.5625H53.6875H52.3438L52.1875 17.5H60.1875L60.0312 19.375H52.0312H47.2812H44.7812H40.0312H32.0312L32.1562 17.5H40.1875L40.3438 16.125H38.9375H34.5312H33.6875L34.1562 10.75H35.8438H39.4062H40.8125L40.9688 9H38.7812L38.6875 10.125H33.0625ZM47.875 12.625L48.1875 9H45.7188L45.4062 12.625H44.375H40.6562H39.25L39.0938 14.25H40.5H45.0938H45.25L44.9375 17.5H47.4375L47.75 14.25H48.2188H52.5H53.8438L54 12.625H52.625H48.0938H47.875ZM68.8438 19.375V6.4375L65.4375 6.625L65.5938 4.8125L68.8438 4.625V1H75.4688V4.28125L78.1562 4.125L78.4375 1H83.8125L83.5625 3.84375L93.25 3.3125L92.0625 14.2188H85.6875L86.6875 5.5L83.4062 5.65625L82.7812 13H77.375L78 5.96875L75.4688 6.09375V19.375H68.8438ZM106.594 5.125L106.75 3.28125H115.75L115.969 1H122.344L122.125 3.28125H125.25L125.094 5.125H121.969L121.375 11.9062H124.5L124.344 13.75H121.188L120.688 19.375H105.625L106.25 11.9062H115L115.594 5.125H106.594ZM96.7812 19.375L98.4062 1H105.281L103.656 19.375H96.7812ZM114.469 17.5312L114.812 13.75H111.5L111.156 17.5312H114.469ZM129.625 5.125L129.75 3.28125H134.469L135.188 0.96875H141.562L140.844 3.28125H150.875L149.5 19.375H143.125L144.344 5.125H140.25L135.781 19.375H129.406L133.875 5.125H129.625ZM152.125 17.0625L152.031 2.4375H155.969L156.062 17.0625H152.125ZM161.75 5.15625L161.875 3.3125H166.25L167.281 1H174.125L173.094 3.3125H189.094L188.938 5.15625H172.281L167.469 15.9375H160.625L165.438 5.15625H161.75ZM173.125 9.09375L173.281 7.25H188.219L188.062 9.09375H185.781L185.5 12.1562H188.469L188.312 14H185.344L184.844 19.375H168.719L169.312 12.1562H179.156L179.406 9.09375H173.125ZM179 14H175.5L175.219 17.5312H178.688L179 14ZM194.625 3.8125L194.781 1.96875H207.5L207.312 1H214.188L214.375 1.96875H220.875L220.719 3.8125H214.688L215.188 6.5H220.531L220.375 8.34375H215.531L216.406 13.125H201.688L201.344 17.5312H217.469L217.312 19.375H194.344L194.969 11.2812H209.219L208.688 8.34375H194.281L194.438 6.5H208.344L207.844 3.8125H194.625ZM225.375 3.5L225.531 1.625H230.062L230.156 0.625H235.656L235.562 1.625H243.625L243.719 0.625H249.219L249.125 1.625H253.656L253.5 3.5H248.969L248.875 4.5H251.438L251.281 6.375H251.25L251 9.25H226.875L227.031 7.375H227.062L227.312 4.5H229.812L229.906 3.5H225.375ZM224.688 11.625L224.844 9.75H230.344H247.438H252.938L252.688 12.875H249.344L248.25 19.375H242.25L242.594 17.375H233.25L232.875 18.875H226.875L228.406 12.875H224.594L224.688 11.625ZM235.406 3.5L235.312 4.5H243.375L243.469 3.5H235.406ZM244.5 6.375L244.438 7.375H245.656L245.75 6.375H244.5ZM238.5 6.375L238.438 7.375H239.938L240 6.375H238.5ZM232.625 6.375L232.531 7.375H233.938L234 6.375H232.625ZM230.188 11.625L230.156 12.25H234.562H243.438H247.25L247.281 11.625H230.188ZM233.75 15.5H242.906L243.125 14.125H234.094L233.75 15.5ZM259.125 4.15625L259.281 2.3125H266.188L267.594 1H273.938L272.531 2.3125H283.531L283.375 4.15625H270.562L267.062 7.40625H277L276.75 10.0312L284.219 9.71875L284.062 11.5625L276.594 11.875L276.312 14.7812H269.938L270.188 12.125L266.438 12.2812L266 17.5312H282.125L281.969 19.375H259.469L260.188 10.7188L270.375 10.2812L270.469 9.25H258.719L264.188 4.15625H259.125ZM301.594 19.375L302.688 18.1562L295.625 17.5L293.969 19.375H288.094L293.094 13.6875H294.062H298.969H306.594H312.312H313.594L310.688 17L316.312 17.5L316.125 19.375L309.156 18.75L308.594 19.375H301.594ZM289.531 2.625L289.719 0.875H317.719L317.531 2.625H301.625L301.094 3.5H309.375H315.375L314.531 13.125H308.531H296.781H290.781L291.625 3.5H294.844L295.375 2.625H289.531ZM297.531 15.3125L297.156 15.75L304.219 16.4062L305.156 15.3125H297.531ZM297.469 5.25L297.406 6.125H309.156L309.219 5.25H297.469ZM297.156 8.75H308.906L309 7.875H297.25L297.156 8.75ZM296.938 11.375H308.688L308.75 10.5H297L296.938 11.375ZM321.344 19.375L322.969 1.875H348.469L346.875 19.375H340.75L342.125 3.71875H338.562L335.75 19.375H321.344ZM332.469 3.71875H328.906L327.625 17.5312H330L332.469 3.71875ZM353.094 19.375L355.875 0.875H357.688H362.062H374.5H379.625H380.688L379.031 19.375H372.844L373.406 13.25H360.188L359.281 19.375H353.094ZM361.281 6.125H374.031L374.344 2.75H361.781L361.281 6.125ZM360.469 11.375H373.562L373.875 8H361L360.469 11.375Z" fill="white"/>
</svg>
